<?xml version="1.0" encoding="UTF-8"?> <svg xmlns="http://www.w3.org/2000/svg" width="290" height="66" viewBox="0 0 290 66" fill="none"><rect x="0.568548" y="0.568548" width="288.863" height="64.0564" rx="10.0444" stroke="white" stroke-opacity="0.2" stroke-width="1.1371"></rect><path fill-rule="evenodd" clip-rule="evenodd" d="M77.4793 16.8037C77.0605 16.8037 76.6588 16.9701 76.3626 17.2663C76.0664 17.5625 75.9 17.9642 75.9 18.383V21.5416H66.4242C65.5865 21.5416 64.7831 21.8744 64.1908 22.4667C63.5984 23.0591 63.2656 23.8625 63.2656 24.7002V45.2311C63.2656 46.0688 63.5984 46.8722 64.1908 47.4646C64.7831 48.0569 65.5865 48.3897 66.4242 48.3897H88.5344C89.3722 48.3897 90.1756 48.0569 90.7679 47.4646C91.3603 46.8722 91.693 46.0688 91.693 45.2311V24.7002C91.693 23.8625 91.3603 23.0591 90.7679 22.4667C90.1756 21.8744 89.3722 21.5416 88.5344 21.5416H79.0586V18.383C79.0586 17.9642 78.8922 17.5625 78.5961 17.2663C78.2999 16.9701 77.8982 16.8037 77.4793 16.8037ZM79.0586 21.5416V35.4837L81.9456 32.5967C82.2417 32.3004 82.6435 32.1338 83.0624 32.1337C83.4813 32.1335 83.8832 32.2998 84.1795 32.5959C84.4759 32.8921 84.6424 33.2938 84.6426 33.7127C84.6427 34.1317 84.4764 34.5335 84.1803 34.8299L78.8739 40.1347C78.5037 40.5046 78.0018 40.7123 77.4785 40.7123C76.9553 40.7123 76.4534 40.5046 76.0832 40.1347L70.7784 34.8299C70.6317 34.6831 70.5154 34.5089 70.4361 34.3173C70.3568 34.1256 70.316 33.9202 70.3161 33.7127C70.3162 33.5053 70.3571 33.2999 70.4365 33.1083C70.516 32.9167 70.6324 32.7426 70.7791 32.5959C70.9259 32.4493 71.1001 32.333 71.2917 32.2537C71.4834 32.1744 71.6888 32.1336 71.8963 32.1337C72.1037 32.1337 72.3091 32.1747 72.5007 32.2541C72.6923 32.3336 72.8664 32.45 73.0131 32.5967L75.9 35.4837V21.5416H79.0586Z" fill="white"></path><path d="M105.954 22.6131C105.102 22.6131 104.378 22.4664 103.782 22.1731C103.195 21.8707 102.746 21.4445 102.435 20.8946C102.123 20.3355 101.949 19.6664 101.912 18.8874C101.903 18.5116 101.899 18.1083 101.899 17.6776C101.899 17.2468 101.903 16.8343 101.912 16.4402C101.949 15.6704 102.123 15.0059 102.435 14.4468C102.756 13.8877 103.209 13.4615 103.796 13.1682C104.392 12.8658 105.111 12.7145 105.954 12.7145C106.577 12.7145 107.137 12.797 107.631 12.962C108.126 13.127 108.548 13.3561 108.896 13.6494C109.245 13.9335 109.515 14.2681 109.707 14.653C109.9 15.0379 110.001 15.455 110.01 15.9041C110.019 15.9866 109.992 16.0553 109.927 16.1103C109.872 16.1653 109.804 16.1928 109.721 16.1928H108.415C108.314 16.1928 108.232 16.1699 108.168 16.124C108.103 16.069 108.058 15.982 108.03 15.8628C107.884 15.2579 107.631 14.8455 107.274 14.6255C106.917 14.4055 106.472 14.2956 105.94 14.2956C105.326 14.2956 104.836 14.4697 104.469 14.818C104.103 15.1571 103.906 15.7208 103.878 16.509C103.851 17.2605 103.851 18.0304 103.878 18.8186C103.906 19.6068 104.103 20.1751 104.469 20.5234C104.836 20.8625 105.326 21.0321 105.94 21.0321C106.472 21.0321 106.917 20.9221 107.274 20.7021C107.631 20.473 107.884 20.0605 108.03 19.4648C108.058 19.3365 108.103 19.2494 108.168 19.2036C108.232 19.1577 108.314 19.1348 108.415 19.1348H109.721C109.804 19.1348 109.872 19.1623 109.927 19.2173C109.992 19.2723 110.019 19.3411 110.01 19.4235C110.001 19.8726 109.9 20.2897 109.707 20.6746C109.515 21.0595 109.245 21.3987 108.896 21.692C108.548 21.9761 108.126 22.2006 107.631 22.3656C107.137 22.5306 106.577 22.6131 105.954 22.6131ZM111.805 22.4756C111.714 22.4756 111.636 22.4435 111.572 22.3794C111.507 22.3152 111.475 22.2373 111.475 22.1456V15.6566C111.475 15.565 111.507 15.487 111.572 15.4229C111.636 15.3587 111.714 15.3267 111.805 15.3267H112.933C113.024 15.3267 113.102 15.3587 113.166 15.4229C113.23 15.487 113.263 15.565 113.263 15.6566V18.1175H114.252L115.93 15.5466C115.966 15.4825 116.012 15.4321 116.067 15.3954C116.131 15.3496 116.214 15.3267 116.315 15.3267H117.538C117.63 15.3267 117.703 15.3496 117.758 15.3954C117.813 15.4412 117.841 15.5008 117.841 15.5741C117.841 15.6016 117.831 15.6337 117.813 15.6704C117.804 15.6978 117.79 15.7253 117.772 15.7528L115.792 18.7636L118.061 22.0494C118.106 22.1044 118.129 22.164 118.129 22.2281C118.129 22.3014 118.102 22.361 118.047 22.4068C117.992 22.4527 117.923 22.4756 117.841 22.4756H116.452C116.36 22.4756 116.282 22.4573 116.218 22.4206C116.163 22.3839 116.113 22.3335 116.067 22.2694L114.252 19.5748H113.263V22.1456C113.263 22.2373 113.23 22.3152 113.166 22.3794C113.102 22.4435 113.024 22.4756 112.933 22.4756H111.805ZM121.405 22.6131C120.929 22.6131 120.498 22.5214 120.113 22.3381C119.728 22.1456 119.421 21.8936 119.192 21.582C118.972 21.2612 118.862 20.9037 118.862 20.5096C118.862 19.8681 119.119 19.3594 119.632 18.9836C120.154 18.5987 120.842 18.342 121.694 18.2137L123.577 17.9388V17.6501C123.577 17.2651 123.481 16.9672 123.289 16.7564C123.096 16.5456 122.766 16.4402 122.299 16.4402C121.969 16.4402 121.699 16.509 121.488 16.6465C121.286 16.7748 121.135 16.9489 121.034 17.1689C120.961 17.288 120.855 17.3476 120.718 17.3476H119.632C119.531 17.3476 119.453 17.3201 119.398 17.2651C119.352 17.2101 119.329 17.1368 119.329 17.0451C119.339 16.8985 119.398 16.7198 119.508 16.509C119.618 16.2982 119.792 16.0965 120.03 15.9041C120.269 15.7024 120.576 15.5329 120.952 15.3954C121.327 15.2579 121.781 15.1892 122.313 15.1892C122.89 15.1892 123.376 15.2625 123.77 15.4091C124.173 15.5466 124.494 15.7345 124.732 15.9728C124.971 16.2111 125.145 16.4906 125.255 16.8114C125.365 17.1322 125.42 17.4713 125.42 17.8288V22.1456C125.42 22.2373 125.388 22.3152 125.323 22.3794C125.259 22.4435 125.181 22.4756 125.09 22.4756H123.976C123.875 22.4756 123.793 22.4435 123.729 22.3794C123.674 22.3152 123.646 22.2373 123.646 22.1456V21.6095C123.527 21.7836 123.367 21.9486 123.165 22.1044C122.963 22.251 122.716 22.3748 122.423 22.4756C122.139 22.5672 121.799 22.6131 121.405 22.6131ZM121.873 21.307C122.193 21.307 122.482 21.2383 122.739 21.1008C123.005 20.9633 123.211 20.7525 123.357 20.4684C123.513 20.1751 123.591 19.8085 123.591 19.3686V19.0798L122.216 19.2998C121.676 19.3823 121.272 19.5152 121.007 19.6985C120.741 19.8818 120.608 20.1064 120.608 20.3722C120.608 20.5738 120.667 20.7479 120.787 20.8946C120.915 21.0321 121.075 21.1375 121.268 21.2108C121.46 21.2749 121.662 21.307 121.873 21.307ZM131.706 22.4756C131.615 22.4756 131.537 22.4435 131.473 22.3794C131.409 22.3152 131.377 22.2373 131.377 22.1456V19.8085C131.147 20.0101 130.863 20.1613 130.524 20.2622C130.194 20.3538 129.818 20.3996 129.397 20.3996C128.563 20.3996 127.917 20.2026 127.458 19.8085C127.009 19.4052 126.785 18.7591 126.785 17.87V15.6566C126.785 15.565 126.812 15.487 126.867 15.4229C126.931 15.3587 127.014 15.3267 127.115 15.3267H128.297C128.389 15.3267 128.467 15.3587 128.531 15.4229C128.595 15.487 128.627 15.565 128.627 15.6566V17.7738C128.627 18.1404 128.723 18.4062 128.916 18.5712C129.117 18.727 129.438 18.8049 129.878 18.8049C130.327 18.8049 130.689 18.7453 130.964 18.6262C131.239 18.507 131.377 18.2962 131.377 17.9938V15.6566C131.377 15.565 131.409 15.487 131.473 15.4229C131.537 15.3587 131.615 15.3267 131.706 15.3267H132.944C133.035 15.3267 133.113 15.3587 133.177 15.4229C133.242 15.487 133.274 15.565 133.274 15.6566V22.1456C133.274 22.2373 133.242 22.3152 133.177 22.3794C133.113 22.4435 133.035 22.4756 132.944 22.4756H131.706ZM137.207 22.6131C136.731 22.6131 136.3 22.5214 135.915 22.3381C135.53 22.1456 135.223 21.8936 134.994 21.582C134.774 21.2612 134.664 20.9037 134.664 20.5096C134.664 19.8681 134.921 19.3594 135.434 18.9836C135.956 18.5987 136.644 18.342 137.496 18.2137L139.38 17.9388V17.6501C139.38 17.2651 139.283 16.9672 139.091 16.7564C138.898 16.5456 138.568 16.4402 138.101 16.4402C137.771 16.4402 137.501 16.509 137.29 16.6465C137.088 16.7748 136.937 16.9489 136.836 17.1689C136.763 17.288 136.657 17.3476 136.52 17.3476H135.434C135.333 17.3476 135.255 17.3201 135.2 17.2651C135.154 17.2101 135.131 17.1368 135.131 17.0451C135.141 16.8985 135.2 16.7198 135.31 16.509C135.42 16.2982 135.594 16.0965 135.833 15.9041C136.071 15.7024 136.378 15.5329 136.754 15.3954C137.129 15.2579 137.583 15.1892 138.115 15.1892C138.692 15.1892 139.178 15.2625 139.572 15.4091C139.975 15.5466 140.296 15.7345 140.534 15.9728C140.773 16.2111 140.947 16.4906 141.057 16.8114C141.167 17.1322 141.222 17.4713 141.222 17.8288V22.1456C141.222 22.2373 141.19 22.3152 141.126 22.3794C141.061 22.4435 140.983 22.4756 140.892 22.4756H139.778C139.677 22.4756 139.595 22.4435 139.531 22.3794C139.476 22.3152 139.448 22.2373 139.448 22.1456V21.6095C139.329 21.7836 139.169 21.9486 138.967 22.1044C138.765 22.251 138.518 22.3748 138.225 22.4756C137.941 22.5672 137.601 22.6131 137.207 22.6131ZM137.675 21.307C137.996 21.307 138.284 21.2383 138.541 21.1008C138.807 20.9633 139.013 20.7525 139.16 20.4684C139.315 20.1751 139.393 19.8085 139.393 19.3686V19.0798L138.018 19.2998C137.478 19.3823 137.074 19.5152 136.809 19.6985C136.543 19.8818 136.41 20.1064 136.41 20.3722C136.41 20.5738 136.47 20.7479 136.589 20.8946C136.717 21.0321 136.877 21.1375 137.07 21.2108C137.262 21.2749 137.464 21.307 137.675 21.307ZM145.171 22.4756C145.071 22.4756 144.988 22.4435 144.924 22.3794C144.869 22.3152 144.841 22.2373 144.841 22.1456V16.7839H142.601C142.5 16.7839 142.417 16.7519 142.353 16.6877C142.298 16.6235 142.271 16.5456 142.271 16.454V15.6566C142.271 15.565 142.298 15.487 142.353 15.4229C142.417 15.3587 142.5 15.3267 142.601 15.3267H148.842C148.943 15.3267 149.025 15.3587 149.09 15.4229C149.154 15.487 149.186 15.565 149.186 15.6566V16.454C149.186 16.5456 149.154 16.6235 149.09 16.6877C149.025 16.7519 148.943 16.7839 148.842 16.7839H146.615V22.1456C146.615 22.2373 146.583 22.3152 146.519 22.3794C146.455 22.4435 146.377 22.4756 146.285 22.4756H145.171ZM150.606 22.4756C150.514 22.4756 150.436 22.4435 150.372 22.3794C150.308 22.3152 150.276 22.2373 150.276 22.1456V15.6566C150.276 15.565 150.308 15.487 150.372 15.4229C150.436 15.3587 150.514 15.3267 150.606 15.3267H151.76C151.852 15.3267 151.93 15.3587 151.994 15.4229C152.058 15.487 152.09 15.565 152.09 15.6566V17.5951H153.506C154.441 17.5951 155.142 17.815 155.61 18.255C156.077 18.6949 156.311 19.2998 156.311 20.0697C156.311 20.8671 156.059 21.4674 155.555 21.8707C155.051 22.2739 154.331 22.4756 153.396 22.4756H150.606ZM152.063 21.1695H153.355C153.804 21.1695 154.134 21.087 154.345 20.9221C154.565 20.7571 154.675 20.473 154.675 20.0697C154.675 19.6756 154.57 19.3823 154.359 19.1898C154.157 18.9974 153.823 18.9011 153.355 18.9011H152.063V21.1695Z" fill="white"></path><path d="M102.19 48.2256C102.034 48.2256 101.889 48.1673 101.753 48.0508C101.636 47.9342 101.578 47.7885 101.578 47.6137C101.578 47.536 101.597 47.4486 101.636 47.3515L108.658 28.5576C108.717 28.3633 108.823 28.1982 108.979 28.0622C109.154 27.9068 109.387 27.8291 109.678 27.8291H112.854C113.146 27.8291 113.369 27.9068 113.524 28.0622C113.68 28.1982 113.796 28.3633 113.874 28.5576L120.896 47.3515C120.916 47.4486 120.925 47.536 120.925 47.6137C120.925 47.7885 120.867 47.9342 120.751 48.0508C120.634 48.1673 120.498 48.2256 120.343 48.2256H117.808C117.536 48.2256 117.332 48.1673 117.196 48.0508C117.079 47.9148 117.001 47.7885 116.963 47.672L115.593 44.1172H106.939L105.57 47.672C105.531 47.7885 105.443 47.9148 105.307 48.0508C105.191 48.1673 104.997 48.2256 104.725 48.2256H102.19ZM107.959 40.7663H114.573L111.252 31.7627L107.959 40.7663ZM122.305 48.2256C122.111 48.2256 121.946 48.1576 121.81 48.0216C121.674 47.8856 121.606 47.7205 121.606 47.5263V28.5576C121.606 28.3439 121.674 28.1691 121.81 28.0331C121.946 27.8971 122.111 27.8291 122.305 27.8291H130.114C131.629 27.8291 132.95 28.0719 134.077 28.5576C135.204 29.0238 136.078 29.7425 136.699 30.7138C137.321 31.6656 137.632 32.8603 137.632 34.2977C137.632 35.7546 137.321 36.959 136.699 37.9108C136.078 38.8432 135.204 39.5425 134.077 40.0087C132.95 40.4749 131.629 40.708 130.114 40.708H125.773V47.5263C125.773 47.7205 125.705 47.8856 125.569 48.0216C125.452 48.1576 125.287 48.2256 125.073 48.2256H122.305ZM125.714 37.4737H129.969C131.095 37.4737 131.96 37.2115 132.562 36.687C133.164 36.1431 133.465 35.3467 133.465 34.2977C133.465 33.3265 133.183 32.5495 132.62 31.9667C132.057 31.3645 131.173 31.0634 129.969 31.0634H125.714V37.4737ZM139.473 48.2256C139.278 48.2256 139.113 48.1576 138.977 48.0216C138.841 47.8856 138.773 47.7205 138.773 47.5263V28.5576C138.773 28.3439 138.841 28.1691 138.977 28.0331C139.113 27.8971 139.278 27.8291 139.473 27.8291H142.037C142.25 27.8291 142.425 27.8971 142.561 28.0331C142.697 28.1691 142.765 28.3439 142.765 28.5576V35.3758L149.35 28.3536C149.428 28.2565 149.554 28.1496 149.729 28.0331C149.923 27.8971 150.176 27.8291 150.487 27.8291H153.371C153.527 27.8291 153.663 27.8874 153.779 28.004C153.915 28.1205 153.983 28.2662 153.983 28.441C153.983 28.577 153.944 28.6936 153.867 28.7907L145.854 37.5903L154.42 47.2349C154.518 47.3515 154.566 47.4777 154.566 47.6137C154.566 47.7885 154.498 47.9342 154.362 48.0508C154.246 48.1673 154.11 48.2256 153.954 48.2256H150.953C150.623 48.2256 150.361 48.1576 150.166 48.0216C149.991 47.8662 149.875 47.7594 149.817 47.7011L142.765 39.9796V47.5263C142.765 47.7205 142.697 47.8856 142.561 48.0216C142.425 48.1576 142.25 48.2256 142.037 48.2256H139.473ZM167.198 53.7618C166.984 53.7618 166.809 53.6938 166.673 53.5578C166.557 53.4218 166.498 53.2567 166.498 53.0625V48.2256C164.75 48.2256 163.303 47.9633 162.157 47.4389C161.03 46.895 160.176 46.1374 159.593 45.1661C159.029 44.1949 158.709 43.0585 158.631 41.757C158.592 41.0188 158.592 40.2807 158.631 39.5425C158.709 38.241 159.039 37.1047 159.622 36.1334C160.224 35.1621 161.098 34.4143 162.244 33.8898C163.39 33.3459 164.808 33.0739 166.498 33.0739V28.2371C166.498 28.0428 166.557 27.8777 166.673 27.7417C166.809 27.6057 166.984 27.5378 167.198 27.5378H169.587C169.801 27.5378 169.966 27.6057 170.082 27.7417C170.218 27.8777 170.286 28.0428 170.286 28.2371V33.0739C171.996 33.0739 173.414 33.3459 174.54 33.8898C175.687 34.4143 176.551 35.1621 177.134 36.1334C177.736 37.1047 178.066 38.241 178.124 39.5425C178.183 40.2807 178.183 41.0188 178.124 41.757C178.066 43.0585 177.746 44.1949 177.163 45.1661C176.6 46.1374 175.745 46.895 174.599 47.4389C173.472 47.9633 172.035 48.2256 170.286 48.2256V53.0625C170.286 53.2567 170.218 53.4218 170.082 53.5578C169.966 53.6938 169.801 53.7618 169.587 53.7618H167.198ZM166.498 45.3409V35.9586C165.158 35.9586 164.158 36.2791 163.497 36.9201C162.856 37.5612 162.507 38.5227 162.448 39.8048C162.429 40.0767 162.419 40.3681 162.419 40.6789C162.419 40.9703 162.429 41.2422 162.448 41.4948C162.526 42.7962 162.885 43.7675 163.526 44.4085C164.167 45.0301 165.158 45.3409 166.498 45.3409ZM170.286 45.3409C171.646 45.3409 172.647 45.0204 173.288 44.3794C173.929 43.7384 174.278 42.7768 174.337 41.4948C174.356 41.2422 174.366 40.9703 174.366 40.6789C174.366 40.3681 174.356 40.0767 174.337 39.8048C174.298 38.5033 173.938 37.5417 173.258 36.9201C172.598 36.2791 171.607 35.9586 170.286 35.9586V45.3409ZM183.769 48.517C182.759 48.517 181.846 48.3227 181.03 47.9342C180.214 47.5263 179.563 46.9921 179.078 46.3316C178.612 45.6517 178.378 44.8942 178.378 44.0589C178.378 42.6991 178.922 41.621 180.01 40.8246C181.117 40.0087 182.574 39.4648 184.381 39.1929L188.373 38.6101V37.9982C188.373 37.1824 188.169 36.551 187.761 36.1043C187.353 35.6575 186.654 35.4341 185.663 35.4341C184.964 35.4341 184.391 35.5798 183.944 35.8712C183.516 36.1431 183.196 36.5122 182.982 36.9784C182.827 37.2309 182.603 37.3572 182.312 37.3572H180.01C179.797 37.3572 179.631 37.2989 179.515 37.1824C179.418 37.0658 179.369 36.9104 179.369 36.7162C179.389 36.4054 179.515 36.0266 179.748 35.5798C179.981 35.133 180.35 34.7056 180.855 34.2977C181.36 33.8704 182.011 33.511 182.807 33.2196C183.604 32.9282 184.565 32.7826 185.692 32.7826C186.916 32.7826 187.945 32.938 188.781 33.2488C189.635 33.5401 190.315 33.9384 190.82 34.4434C191.325 34.9485 191.694 35.5409 191.928 36.2208C192.161 36.9007 192.277 37.6194 192.277 38.377V47.5263C192.277 47.7205 192.209 47.8856 192.073 48.0216C191.937 48.1576 191.772 48.2256 191.578 48.2256H189.218C189.004 48.2256 188.829 48.1576 188.693 48.0216C188.577 47.8856 188.518 47.7205 188.518 47.5263V46.3899C188.266 46.759 187.926 47.1086 187.499 47.4389C187.071 47.7497 186.547 48.0119 185.925 48.2256C185.323 48.4198 184.604 48.517 183.769 48.517ZM184.76 45.7489C185.44 45.7489 186.051 45.6032 186.595 45.3118C187.159 45.0204 187.596 44.5736 187.907 43.9715C188.237 43.3499 188.402 42.5729 188.402 41.6404V41.0286L185.488 41.4948C184.342 41.6696 183.487 41.9512 182.924 42.3398C182.361 42.7283 182.079 43.2042 182.079 43.7675C182.079 44.1949 182.205 44.5639 182.458 44.8747C182.73 45.1661 183.07 45.3895 183.478 45.5449C183.886 45.6809 184.313 45.7489 184.76 45.7489ZM194.646 48.2256C194.471 48.2256 194.316 48.1576 194.18 48.0216C194.044 47.8856 193.976 47.7302 193.976 47.5554V33.7732C193.976 33.579 194.044 33.4139 194.18 33.2779C194.316 33.1419 194.481 33.0739 194.675 33.0739H197.093C197.307 33.0739 197.472 33.1419 197.589 33.2779C197.725 33.4139 197.793 33.579 197.793 33.7732V45.2827L196.773 44.5542L204.786 33.5401C204.883 33.4042 204.99 33.2973 205.106 33.2196C205.223 33.1225 205.378 33.0739 205.572 33.0739H207.787C207.962 33.0739 208.117 33.1419 208.253 33.2779C208.389 33.3944 208.457 33.5401 208.457 33.715V47.5263C208.457 47.7205 208.389 47.8856 208.253 48.0216C208.117 48.1576 207.952 48.2256 207.758 48.2256H205.339C205.126 48.2256 204.951 48.1576 204.815 48.0216C204.698 47.8856 204.64 47.7205 204.64 47.5263V36.5413L205.718 36.687L197.647 47.7594C197.569 47.8759 197.462 47.9828 197.326 48.0799C197.21 48.177 197.055 48.2256 196.86 48.2256H194.646ZM201.377 31.0926C200.211 31.0926 199.279 30.908 198.579 30.5389C197.88 30.1699 197.375 29.6939 197.064 29.1112C196.773 28.509 196.627 27.868 196.627 27.1881C196.627 27.0327 196.676 26.9064 196.773 26.8093C196.87 26.6928 197.006 26.6345 197.181 26.6345H198.842C199.016 26.6345 199.152 26.6928 199.25 26.8093C199.347 26.9064 199.395 27.0327 199.395 27.1881C199.395 27.6155 199.531 28.004 199.803 28.3536C200.075 28.6838 200.6 28.849 201.377 28.849C202.192 28.849 202.727 28.6838 202.979 28.3536C203.232 28.004 203.358 27.6155 203.358 27.1881C203.358 27.0327 203.407 26.9064 203.504 26.8093C203.601 26.6928 203.737 26.6345 203.912 26.6345H205.602C205.776 26.6345 205.912 26.6928 206.01 26.8093C206.107 26.9064 206.155 27.0327 206.155 27.1881C206.155 27.868 206 28.509 205.689 29.1112C205.378 29.6939 204.873 30.1699 204.174 30.5389C203.494 30.908 202.562 31.0926 201.377 31.0926ZM209.624 48.2256C209.41 48.2256 209.235 48.1576 209.099 48.0216C208.964 47.8856 208.896 47.7108 208.896 47.4971V45.6906C208.896 45.2632 209.119 45.0301 209.566 44.9913C210.148 44.9524 210.615 44.6805 210.964 44.1754C211.314 43.6704 211.566 42.8934 211.722 41.8444C211.877 40.776 211.955 39.3968 211.955 37.7068V33.7732C211.955 33.579 212.023 33.4139 212.159 33.2779C212.295 33.1419 212.47 33.0739 212.683 33.0739H223.027C223.222 33.0739 223.387 33.1419 223.523 33.2779C223.659 33.4139 223.727 33.579 223.727 33.7732V47.5263C223.727 47.7205 223.659 47.8856 223.523 48.0216C223.387 48.1576 223.222 48.2256 223.027 48.2256H220.609C220.395 48.2256 220.22 48.1576 220.084 48.0216C219.968 47.8856 219.91 47.7205 219.91 47.5263V36.1625H215.626V38.1148C215.626 39.9796 215.52 41.5627 215.306 42.8642C215.112 44.1463 214.772 45.1855 214.286 45.982C213.82 46.759 213.198 47.332 212.421 47.7011C211.664 48.0508 210.731 48.2256 209.624 48.2256Z" fill="white"></path></svg> 