<svg xmlns="http://www.w3.org/2000/svg" width="290" height="66" fill="none"><path fill="#fff" fill-rule="evenodd" d="M77.48 16.8a1.58 1.58 0 0 0-1.58 1.58v3.16h-9.48a3.16 3.16 0 0 0-3.15 3.16v20.53a3.16 3.16 0 0 0 3.15 3.16h22.11a3.16 3.16 0 0 0 3.16-3.16V24.7a3.16 3.16 0 0 0-3.16-3.16h-9.47v-3.16a1.58 1.58 0 0 0-1.58-1.58Zm1.58 4.74v13.94l2.89-2.88a1.58 1.58 0 0 1 2.23 2.23l-5.3 5.3a1.97 1.97 0 0 1-2.8 0l-5.3-5.3A1.58 1.58 0 1 1 73 32.6l2.89 2.88V21.54h3.16Z" clip-rule="evenodd"/><path fill="#fff" d="M105.95 22.61c-.85 0-1.57-.14-2.17-.44a3.18 3.18 0 0 1-1.35-1.28 4.52 4.52 0 0 1-.52-2 54.36 54.36 0 0 1 0-2.45c.04-.77.21-1.43.53-2 .32-.55.77-.98 1.36-1.27.6-.3 1.31-.46 2.15-.46.63 0 1.19.09 1.68.25.5.17.92.4 1.27.69.35.28.62.62.8 1 .2.39.3.8.31 1.25a.22.22 0 0 1-.08.21.28.28 0 0 1-.2.08h-1.31a.41.41 0 0 1-.25-.07.47.47 0 0 1-.14-.26c-.15-.6-.4-1.01-.76-1.23a2.5 2.5 0 0 0-1.33-.33c-.61 0-1.1.17-1.47.52-.37.34-.56.9-.6 1.69a32.93 32.93 0 0 0 0 2.3c.04.8.23 1.37.6 1.71.37.34.86.51 1.47.51.53 0 .98-.1 1.33-.33.36-.23.61-.64.76-1.23.03-.13.07-.22.14-.27a.41.41 0 0 1 .25-.07h1.3c.08 0 .15.03.2.09a.22.22 0 0 1 .09.2c0 .45-.11.87-.3 1.25a3.17 3.17 0 0 1-.81 1.02c-.35.29-.77.51-1.27.68a5.28 5.28 0 0 1-1.68.24Zm5.85-.13a.32.32 0 0 1-.23-.1.32.32 0 0 1-.1-.23v-6.5c0-.09.04-.16.1-.23a.32.32 0 0 1 .23-.1h1.13c.1 0 .17.04.24.1a.32.32 0 0 1 .1.24v2.46h.98l1.68-2.57a.42.42 0 0 1 .38-.22h1.23c.09 0 .16.02.22.06a.22.22 0 0 1 .08.18c0 .03 0 .06-.03.1a.35.35 0 0 1-.04.08l-1.98 3.01 2.27 3.29a.28.28 0 0 1 .07.18.22.22 0 0 1-.08.18.31.31 0 0 1-.2.07h-1.4a.46.46 0 0 1-.23-.06.6.6 0 0 1-.15-.15l-1.82-2.7h-.99v2.57a.32.32 0 0 1-.1.24.32.32 0 0 1-.23.1h-1.12Zm9.6.13c-.47 0-.9-.09-1.29-.27a2.51 2.51 0 0 1-.92-.76 1.85 1.85 0 0 1-.33-1.07c0-.64.26-1.15.77-1.53a4.58 4.58 0 0 1 2.06-.77l1.89-.27v-.29c0-.38-.1-.68-.3-.9-.18-.2-.51-.31-.98-.31-.33 0-.6.07-.81.2a1.2 1.2 0 0 0-.46.53.35.35 0 0 1-.31.18h-1.09a.32.32 0 0 1-.23-.08.33.33 0 0 1-.07-.22c0-.15.07-.33.18-.54.1-.21.28-.41.52-.6a3.03 3.03 0 0 1 .92-.51c.38-.14.83-.21 1.36-.21.58 0 1.07.07 1.46.22a2.16 2.16 0 0 1 1.48 1.4c.11.32.17.66.17 1.02v4.32c0 .09-.03.17-.1.23a.32.32 0 0 1-.23.1h-1.11a.33.33 0 0 1-.25-.1.35.35 0 0 1-.08-.23v-.54c-.12.17-.28.34-.49.5-.2.14-.44.26-.74.37a3.34 3.34 0 0 1-1.02.13Zm.47-1.3c.32 0 .61-.07.87-.2a1.42 1.42 0 0 0 .62-.64c.15-.3.23-.66.23-1.1v-.29l-1.37.22c-.54.08-.95.21-1.21.4-.27.18-.4.4-.4.67 0 .2.06.38.18.52s.28.25.48.32a1.9 1.9 0 0 0 .6.1Zm9.84 1.17a.32.32 0 0 1-.24-.1.32.32 0 0 1-.1-.23V19.8c-.22.2-.5.35-.85.45-.33.1-.7.14-1.12.14-.84 0-1.48-.2-1.94-.6-.45-.4-.68-1.04-.68-1.93v-2.21c0-.1.03-.17.09-.24a.34.34 0 0 1 .24-.1h1.19c.09 0 .17.04.23.1a.32.32 0 0 1 .1.24v2.11c0 .37.1.64.29.8.2.16.52.23.96.23.45 0 .8-.06 1.08-.17a.64.64 0 0 0 .42-.64v-2.33c0-.1.03-.17.1-.24a.32.32 0 0 1 .23-.1h1.23c.1 0 .17.04.24.1a.32.32 0 0 1 .1.24v6.49c0 .09-.04.17-.1.23a.32.32 0 0 1-.24.1h-1.23Zm5.5.13c-.48 0-.91-.09-1.3-.27a2.51 2.51 0 0 1-.92-.76 1.85 1.85 0 0 1-.33-1.07c0-.64.26-1.15.77-1.53a4.58 4.58 0 0 1 2.07-.77l1.88-.27v-.29c0-.38-.1-.68-.29-.9-.2-.2-.52-.31-.99-.31-.33 0-.6.07-.81.2a1.2 1.2 0 0 0-.45.53.35.35 0 0 1-.32.18h-1.09a.32.32 0 0 1-.23-.08.33.33 0 0 1-.07-.22c.01-.15.07-.33.18-.54.11-.21.28-.41.52-.6.24-.2.55-.38.92-.51.38-.14.83-.21 1.36-.21.58 0 1.07.07 1.46.22a2.16 2.16 0 0 1 1.48 1.4c.12.32.17.66.17 1.02v4.32c0 .09-.03.17-.1.23a.32.32 0 0 1-.23.1h-1.11a.33.33 0 0 1-.25-.1.35.35 0 0 1-.08-.23v-.54c-.12.17-.28.34-.48.5-.2.14-.45.26-.75.37a3.34 3.34 0 0 1-1.01.13Zm.46-1.3c.33 0 .61-.07.87-.2.27-.15.47-.36.62-.64.15-.3.23-.66.23-1.1v-.29l-1.37.22c-.54.08-.95.21-1.21.4-.27.18-.4.4-.4.67 0 .2.06.38.18.52.13.14.29.25.48.32a1.9 1.9 0 0 0 .6.1Zm7.5 1.17a.34.34 0 0 1-.25-.1.35.35 0 0 1-.08-.23v-5.37h-2.24a.34.34 0 0 1-.25-.1.35.35 0 0 1-.08-.23v-.8c0-.09.03-.16.08-.23a.34.34 0 0 1 .25-.1h6.24c.1 0 .18.04.25.1a.32.32 0 0 1 .1.24v.8c0 .09-.04.16-.1.23a.34.34 0 0 1-.25.1h-2.23v5.36c0 .09-.03.17-.1.23a.32.32 0 0 1-.23.1h-1.1Zm5.44 0a.32.32 0 0 1-.24-.1.32.32 0 0 1-.1-.23v-6.5c0-.09.04-.16.1-.23a.32.32 0 0 1 .24-.1h1.15c.1 0 .17.04.23.1a.32.32 0 0 1 .1.24v1.93h1.42c.93 0 1.63.22 2.1.66.47.44.7 1.05.7 1.82 0 .8-.25 1.4-.75 1.8-.5.4-1.23.6-2.16.6h-2.8Zm1.45-1.31h1.3c.44 0 .77-.08.98-.25.22-.16.33-.45.33-.85 0-.4-.1-.69-.31-.88-.2-.2-.54-.29-1-.29h-1.3v2.27ZM102.2 48.23a.66.66 0 0 1-.44-.18.6.6 0 0 1-.17-.44.7.7 0 0 1 .06-.26l7.02-18.8a1.02 1.02 0 0 1 1.02-.73h3.17c.3 0 .52.09.67.24.16.14.28.3.35.5l7.03 18.8.03.25a.6.6 0 0 1-.18.44.56.56 0 0 1-.4.18h-2.54c-.27 0-.48-.06-.61-.18a1.16 1.16 0 0 1-.24-.38l-1.37-3.55h-8.65l-1.37 3.55a1.03 1.03 0 0 1-.26.38c-.12.12-.31.18-.59.18h-2.53Zm5.77-7.46h6.61l-3.32-9-3.3 9Zm14.35 7.46a.67.67 0 0 1-.5-.2.67.67 0 0 1-.2-.5V28.56a.71.71 0 0 1 .2-.53.67.67 0 0 1 .5-.2h7.8c1.52 0 2.84.24 3.97.73 1.12.46 2 1.18 2.62 2.15.62.96.93 2.15.93 3.59 0 1.46-.3 2.66-.93 3.61a5.66 5.66 0 0 1-2.62 2.1c-1.13.47-2.45.7-3.97.7h-4.34v6.82c0 .19-.06.36-.2.5a.62.62 0 0 1-.5.2h-2.76Zm3.4-10.76h4.26c1.13 0 1.99-.26 2.6-.78.6-.55.9-1.34.9-2.4 0-.96-.29-1.74-.85-2.32-.56-.6-1.45-.9-2.65-.9h-4.26v6.4Zm13.76 10.76a.68.68 0 0 1-.5-.2.67.67 0 0 1-.2-.5V28.56a.71.71 0 0 1 .2-.53.68.68 0 0 1 .5-.2h2.57a.71.71 0 0 1 .52.2.71.71 0 0 1 .2.53v6.82l6.59-7.03c.08-.1.2-.2.38-.32.2-.13.45-.2.76-.2h2.88c.16 0 .3.06.4.17a.55.55 0 0 1 .21.44.55.55 0 0 1-.11.35l-8.02 8.8 8.57 9.65a.58.58 0 0 1 .15.37c0 .18-.07.32-.2.44a.56.56 0 0 1-.42.18h-3c-.33 0-.59-.07-.78-.2a9.26 9.26 0 0 1-.35-.33l-7.06-7.72v7.55c0 .19-.06.36-.2.5a.71.71 0 0 1-.52.2h-2.57Zm27.73 5.53a.71.71 0 0 1-.53-.2.74.74 0 0 1-.17-.5v-4.83c-1.75 0-3.2-.27-4.34-.8a5.88 5.88 0 0 1-2.57-2.26 7.6 7.6 0 0 1-.96-3.41 20.97 20.97 0 0 1 0-2.22c.08-1.3.4-2.43 1-3.4a5.86 5.86 0 0 1 2.61-2.25 9.89 9.89 0 0 1 4.26-.82v-4.83c0-.2.06-.36.17-.5a.71.71 0 0 1 .53-.2h2.39c.21 0 .38.07.5.2a.67.67 0 0 1 .2.5v4.83c1.7 0 3.12.28 4.25.82a5.67 5.67 0 0 1 2.6 2.24c.6.98.93 2.11.98 3.41.06.74.06 1.48 0 2.22a7.14 7.14 0 0 1-.96 3.4 5.67 5.67 0 0 1-2.56 2.28c-1.13.52-2.56.79-4.31.79v4.83c0 .2-.07.36-.2.5a.61.61 0 0 1-.5.2h-2.4Zm-.7-8.42v-9.38c-1.34 0-2.34.32-3 .96-.64.64-1 1.6-1.05 2.88a12.56 12.56 0 0 0 0 1.7c.08 1.3.44 2.27 1.08 2.9.64.63 1.63.94 2.97.94Zm3.79 0c1.36 0 2.36-.32 3-.96.64-.64.99-1.6 1.05-2.89a12.56 12.56 0 0 0 0-1.69c-.04-1.3-.4-2.26-1.08-2.88-.66-.64-1.65-.96-2.97-.96v9.38Zm13.48 3.18c-1.01 0-1.92-.2-2.74-.59a5.32 5.32 0 0 1-1.95-1.6 3.93 3.93 0 0 1-.7-2.27 3.8 3.8 0 0 1 1.63-3.23 9.7 9.7 0 0 1 4.37-1.64l4-.58V38c0-.82-.21-1.45-.62-1.9-.4-.44-1.1-.67-2.1-.67-.7 0-1.27.15-1.72.44a2.54 2.54 0 0 0-.96 1.1.74.74 0 0 1-.67.39h-2.3a.67.67 0 0 1-.5-.18.7.7 0 0 1-.14-.46 3 3 0 0 1 .38-1.14c.23-.45.6-.87 1.1-1.28.51-.43 1.16-.79 1.96-1.08.8-.3 1.76-.44 2.88-.44 1.23 0 2.26.16 3.1.47.85.29 1.53.69 2.03 1.2a4.6 4.6 0 0 1 1.1 1.77c.24.68.36 1.4.36 2.16v9.15c0 .2-.07.36-.2.5a.67.67 0 0 1-.5.2h-2.36a.71.71 0 0 1-.53-.2.74.74 0 0 1-.17-.5v-1.14a4.69 4.69 0 0 1-1.02 1.05 6 6 0 0 1-3.73 1.08Zm.99-2.77c.68 0 1.3-.15 1.84-.44.56-.29 1-.74 1.3-1.34.34-.62.5-1.4.5-2.33v-.61l-2.91.47c-1.15.17-2 .45-2.57.84-.56.39-.84.86-.84 1.43 0 .42.13.8.38 1.1a2.67 2.67 0 0 0 1.02.68c.4.13.83.2 1.28.2Zm9.89 2.48a.64.64 0 0 1-.47-.2.64.64 0 0 1-.2-.48V33.77c0-.2.06-.36.2-.5a.67.67 0 0 1 .5-.2h2.41c.22 0 .38.07.5.2a.67.67 0 0 1 .2.5v11.51l-1.02-.73 8.02-11.01a1.26 1.26 0 0 1 .32-.32.7.7 0 0 1 .46-.15h2.22c.17 0 .33.07.46.2a.55.55 0 0 1 .2.45v13.8c0 .2-.06.37-.2.5a.67.67 0 0 1-.5.2h-2.41a.71.71 0 0 1-.52-.2.73.73 0 0 1-.18-.5V36.55l1.08.15-8.07 11.07a1.26 1.26 0 0 1-.32.32.7.7 0 0 1-.47.15h-2.21Zm6.73-17.14c-1.17 0-2.1-.18-2.8-.55a3.5 3.5 0 0 1-1.52-1.43 4.36 4.36 0 0 1-.43-1.92c0-.16.05-.28.14-.38a.5.5 0 0 1 .41-.18h1.66a.5.5 0 0 1 .41.18.51.51 0 0 1 .14.38c0 .43.14.81.41 1.16.27.33.8.5 1.58.5.81 0 1.35-.17 1.6-.5.25-.35.38-.73.38-1.16 0-.16.05-.28.14-.38a.5.5 0 0 1 .41-.18h1.7a.5.5 0 0 1 .4.18.51.51 0 0 1 .14.38 3.5 3.5 0 0 1-1.98 3.35 5.9 5.9 0 0 1-2.8.55Zm8.24 17.14a.71.71 0 0 1-.52-.2.71.71 0 0 1-.2-.53v-1.8c0-.44.22-.67.67-.7a1.77 1.77 0 0 0 1.4-.83c.34-.5.6-1.28.75-2.33.16-1.06.24-2.44.24-4.13v-3.94c0-.2.06-.36.2-.5a.71.71 0 0 1 .52-.2h10.35c.2 0 .36.07.5.2a.67.67 0 0 1 .2.5v13.76c0 .19-.07.36-.2.5a.68.68 0 0 1-.5.2h-2.42a.71.71 0 0 1-.53-.2.74.74 0 0 1-.17-.5V36.16h-4.28v1.96c0 1.86-.11 3.44-.32 4.75a8.4 8.4 0 0 1-1.02 3.11 4.3 4.3 0 0 1-1.87 1.72c-.76.35-1.69.53-2.8.53Z"/></svg>