<svg xmlns="http://www.w3.org/2000/svg" width="290" height="66" fill="none"><path fill="#C91C2E" fill-rule="evenodd" d="M85.18 12H66.82C58.17 12 55 15.16 55 23.82v18.36C55 50.84 58.16 54 66.82 54h18.36C93.83 54 97 50.84 97 42.18V23.82C97 15.16 93.83 12 85.18 12Z" clip-rule="evenodd"/><path fill="#fff" d="M73.66 36.24h1.67l-.84-1.95-.83 1.95Zm-.42.99-.5 1.14h-1.13l2.41-5.47H75l2.4 5.47h-1.16l-.5-1.14h-2.5Zm18.22 1.13h1.1V32.9h-1.1v5.46Zm-4.35-2.34h2.01v-1h-2.01V33.9h2.92v-1h-4.02v5.46h4.13v-.99h-3.03v-1.35Zm-4.35.64-1.24-3.76h-.9l-1.25 3.76-1.2-3.75h-1.18l1.9 5.46h.92l1.24-3.59 1.24 3.59h.93l1.9-5.46h-1.15l-1.21 3.75Zm-12.82-.63c0 .89-.44 1.36-1.24 1.36s-1.25-.48-1.25-1.4v-3.08h-1.1v3.12c0 1.54.85 2.42 2.34 2.42 1.5 0 2.36-.9 2.36-2.46V32.9h-1.1v3.13ZM63.7 32.9h1.1v5.47h-1.1v-2.22h-2.5v2.22h-1.11V32.9h1.1v2.2h2.51v-2.2Zm12.34-6.95a6.97 6.97 0 0 1-6.95-6.96h.98a5.98 5.98 0 0 0 5.97 5.97A5.98 5.98 0 0 0 82.02 19H83a6.97 6.97 0 0 1-6.96 6.96Zm38.59 15.65h5.18l-1.86-4.97a36.25 36.25 0 0 1-.75-2.27 66.42 66.42 0 0 1-.73 2.25l-1.84 4.99Zm6.07 2.36h-6.95l-1.7 4.64H109l6.8-17.34h2.88l6.96 17.34h-3.21l-1.74-4.64Zm13.94 1.49c.6-.81.9-2 .9-3.55 0-1.45-.25-2.5-.74-3.14a2.39 2.39 0 0 0-2-.98c-.57 0-1.1.14-1.59.4-.49.28-.95.64-1.39 1.1v6.92a5.52 5.52 0 0 0 2.2.47c1.14 0 2.02-.41 2.62-1.22Zm-7.77-6.6c0-.96-.04-2.01-.1-3.16h2.78c.1.53.17 1.08.21 1.64a5.23 5.23 0 0 1 3.95-1.88c.87 0 1.66.21 2.4.65a4.63 4.63 0 0 1 1.77 2.06c.46.94.68 2.13.68 3.57 0 1.5-.26 2.8-.77 3.87a5.52 5.52 0 0 1-2.16 2.43c-.93.55-2 .82-3.2.82a7.9 7.9 0 0 1-2.6-.44v5.34l-2.96.25V38.85Zm21.26 6.6c.6-.81.9-2 .9-3.55 0-1.45-.25-2.5-.74-3.14a2.39 2.39 0 0 0-2-.98c-.57 0-1.1.14-1.59.4-.49.28-.95.64-1.39 1.1v6.92a5.5 5.5 0 0 0 2.19.47c1.15 0 2.03-.41 2.63-1.22Zm-7.78-6.6c0-.96-.03-2.01-.09-3.16h2.78c.1.53.17 1.08.21 1.64a5.23 5.23 0 0 1 3.95-1.88c.86 0 1.66.21 2.4.65a4.63 4.63 0 0 1 1.77 2.06c.45.94.68 2.13.68 3.57 0 1.5-.26 2.8-.77 3.87a5.53 5.53 0 0 1-2.16 2.43c-.93.55-2 .82-3.21.82a7.9 7.9 0 0 1-2.6-.44v5.34l-2.96.25V38.85Zm17.13 8.93a7.17 7.17 0 0 1-2.94-3.03 9.97 9.97 0 0 1-1.03-4.67c0-1.95.4-3.6 1.18-4.96a7.63 7.63 0 0 1 3.23-3.07 10.08 10.08 0 0 1 4.58-1.02 12.1 12.1 0 0 1 5.38 1.23l-.75 2.28a10.46 10.46 0 0 0-4.5-1.13 6.3 6.3 0 0 0-3.17.77 5.25 5.25 0 0 0-2.11 2.27c-.5 1-.75 2.2-.75 3.62 0 1.23.19 2.33.58 3.29a4.86 4.86 0 0 0 1.83 2.27c.83.56 1.88.84 3.15.84.58 0 1.15-.05 1.73-.14a9.01 9.01 0 0 0 1.61-.42v-3.5h-4v-2.3h6.88v7.3a15.36 15.36 0 0 1-6.37 1.43 9.2 9.2 0 0 1-4.53-1.06Zm19.63-1.57c.61-.3 1.12-.67 1.5-1.1v-2.4a19.08 19.08 0 0 0-1.97-.13c-1.22 0-2.06.2-2.53.6-.47.39-.7.92-.7 1.6 0 .63.17 1.1.51 1.4.34.32.8.47 1.38.47.6 0 1.2-.15 1.81-.44Zm1.77 2.4a11.24 11.24 0 0 1-.2-1.72 5.7 5.7 0 0 1-1.78 1.38c-.73.38-1.55.57-2.47.57a4.65 4.65 0 0 1-2.03-.44 3.38 3.38 0 0 1-1.46-1.31 4.04 4.04 0 0 1-.53-2.15 3.7 3.7 0 0 1 1.35-3c.9-.75 2.4-1.12 4.51-1.12.8 0 1.57.06 2.35.17v-.25c0-1.14-.25-1.95-.73-2.42-.49-.46-1.19-.7-2.1-.7a10.61 10.61 0 0 0-3.91.93l-.47-2.15c.53-.24 1.22-.46 2.09-.65.86-.2 1.77-.3 2.72-.3 1.12 0 2.07.17 2.85.5.79.34 1.4.93 1.83 1.75.44.83.66 1.94.66 3.34v5.13c0 .54.03 1.35.1 2.43h-2.78Zm4.95-3.1V30.23l2.94-.24v14.97c0 .56.1.94.29 1.17.18.23.48.34.89.34.18 0 .44-.04.78-.13l.34 2.12c-.28.11-.62.2-1.02.27a6.92 6.92 0 0 1-1.14.1c-2.05 0-3.08-1.11-3.08-3.34Zm7.36 0V30.23l2.94-.24v14.97c0 .56.1.94.28 1.17.2.23.49.34.9.34.18 0 .44-.04.77-.13l.35 2.12c-.28.11-.62.2-1.02.27a6.94 6.94 0 0 1-1.15.1c-2.05 0-3.07-1.11-3.07-3.34Zm14.48-4.87a3.7 3.7 0 0 0-.78-2.32 2.38 2.38 0 0 0-1.86-.77 2.5 2.5 0 0 0-1.87.78c-.5.52-.83 1.3-.98 2.31h5.49Zm2.88 1.88h-8.45c.14 2.7 1.42 4.06 3.87 4.06.6 0 1.22-.07 1.86-.22a11.12 11.12 0 0 0 1.82-.6l.65 2.03a11 11 0 0 1-4.87 1.05 7.11 7.11 0 0 1-3.47-.78 4.98 4.98 0 0 1-2.13-2.24 7.99 7.99 0 0 1-.71-3.51c0-1.43.25-2.66.75-3.7a5.48 5.48 0 0 1 5.21-3.16c1.22 0 2.24.28 3.06.85a5.1 5.1 0 0 1 1.82 2.28c.4.95.59 2 .59 3.15v.8Zm2.23-3.59c0-.71-.03-1.8-.1-3.24h2.77a37.62 37.62 0 0 1 .23 2.5c.34-.57.68-1.05 1.01-1.43.33-.39.72-.7 1.16-.95a3.1 3.1 0 0 1 1.52-.36c.45 0 .84.04 1.17.14l-.38 2.56a3.24 3.24 0 0 0-.95-.13c-.7 0-1.3.18-1.82.53a7.4 7.4 0 0 0-1.67 1.76v8.3h-2.94v-9.68Zm9.42 14.96a7.04 7.04 0 0 1-1.06-.26l.54-2.16a7.44 7.44 0 0 0 1.62.24c1.3 0 2.28-.84 2.94-2.52l.19-.48-4.77-13.02h3.18l2.4 7.27c.38 1.25.63 2.2.74 2.86.23-.93.49-1.86.8-2.8l2.43-7.33h2.97l-4.75 13.08a13.4 13.4 0 0 1-1.45 3 5.09 5.09 0 0 1-1.83 1.68c-.71.37-1.56.55-2.56.55-.5 0-.96-.04-1.39-.11ZM114.28 23.16c-1 0-1.9-.23-2.72-.7a5.16 5.16 0 0 1-1.89-1.98c-.44-.84-.67-1.8-.67-2.85s.23-2 .67-2.83a5.01 5.01 0 0 1 4.6-2.67c1.09 0 2.05.28 2.9.82a4.49 4.49 0 0 1 1.82 2.2l-1.55.24a2.97 2.97 0 0 0-1.27-1.32c-.55-.33-1.17-.48-1.85-.48s-1.35.17-1.9.52c-.55.34-.98.82-1.3 1.44-.3.61-.46 1.31-.46 2.11 0 .8.16 1.51.46 2.13a3.56 3.56 0 0 0 3.22 1.96c.73 0 1.35-.17 1.9-.49.55-.33.99-.8 1.28-1.4l1.54.25a4.8 4.8 0 0 1-1.87 2.26c-.87.56-1.83.84-2.91.84v-.05Zm12.73-.16h-1.96l-2.9-3.26h-.48V23h-1.5v-7.87h1.5v3.2h.46l2.8-3.2h1.8l-3.38 3.81 3.68 4.06h-.01Zm3.55-8.02c.98 0 1.74.32 2.3.97.57.63.85 1.5.85 2.65v4.42h-1.07l-.35-1.23a2.85 2.85 0 0 1-2.55 1.38c-.54 0-1-.1-1.42-.32a2.45 2.45 0 0 1-.98-.89 2.48 2.48 0 0 1-.36-1.3c0-.73.3-1.32.9-1.77.59-.44 1.44-.67 2.56-.67h1.77a2.3 2.3 0 0 0-.52-1.44c-.3-.34-.7-.52-1.22-.52-.38 0-.72.1-1.01.28-.3.18-.52.42-.67.71l-1.39-.22c.2-.64.6-1.13 1.17-1.5a3.63 3.63 0 0 1 1.98-.55h.01Zm-.5 6.92c.63 0 1.15-.2 1.54-.62.4-.43.61-1.02.61-1.75v-.1h-1.74c-1.32 0-1.98.4-1.98 1.2 0 .38.14.7.43.93.28.23.66.35 1.13.35v-.01Zm9.5-1.76a5.26 5.26 0 0 1-1.85.34c-.94 0-1.68-.27-2.18-.79a3.1 3.1 0 0 1-.77-2.23v-2.34h1.5v2.34c0 1.13.55 1.69 1.63 1.69.66 0 1.21-.12 1.67-.36v-3.67h1.5V23h-1.5v-2.87.02Zm6.35-5.16c.98 0 1.74.32 2.3.97.57.63.85 1.5.85 2.65v4.42H148l-.36-1.23a2.86 2.86 0 0 1-2.55 1.38c-.53 0-1-.1-1.42-.32a2.45 2.45 0 0 1-.98-.89 2.48 2.48 0 0 1-.36-1.3c0-.73.3-1.32.9-1.77.59-.44 1.44-.67 2.56-.67h1.77a2.29 2.29 0 0 0-.52-1.44c-.3-.34-.7-.52-1.22-.52-.38 0-.72.1-1.01.28-.3.18-.52.42-.67.71l-1.39-.22c.2-.64.6-1.13 1.17-1.5a3.63 3.63 0 0 1 1.98-.55h.01Zm-.5 6.92c.63 0 1.15-.2 1.54-.62.41-.43.61-1.02.61-1.75v-.1h-1.74c-1.32 0-1.98.4-1.98 1.2 0 .38.14.7.44.93.28.23.66.35 1.13.35v-.01Zm7.53 1.1h-2.2v-7.86h1.44v6.19h.23l3.19-6.2h2.2v7.88h-1.44v-6.19h-.23L152.95 23Zm1.35-8.9c-.66 0-1.22-.17-1.66-.51a2.3 2.3 0 0 1-.78-1.59h1.22c.05.33.18.57.38.75.22.16.5.24.84.24.34 0 .62-.08.82-.24.22-.18.35-.42.38-.75h1.24c-.1.7-.36 1.23-.82 1.59-.43.34-.97.52-1.62.52Zm8.69 8.9h-1.5v-6.5h-2.73v-1.36h6.95v1.36h-2.73V23Zm11.04-3.98-.01.47h-6.5c.08.7.35 1.25.82 1.67.47.42 1.07.63 1.78.63.5 0 .94-.1 1.32-.3.4-.2.7-.47.9-.78l1.4.22c-.3.71-.8 1.26-1.48 1.65a4.48 4.48 0 0 1-2.23.59c-.81 0-1.48-.18-2.1-.52a3.72 3.72 0 0 1-1.45-1.46 4.28 4.28 0 0 1-.52-2.1c0-.8.17-1.5.52-2.13a3.66 3.66 0 0 1 1.43-1.44c.61-.36 1.3-.54 2.08-.54s1.46.18 2.07.54a3.6 3.6 0 0 1 1.45 1.44c.34.61.52 1.3.52 2.06Zm-4.04-2.72c-.6 0-1.11.18-1.54.54-.44.35-.71.83-.85 1.43h4.8a2.48 2.48 0 0 0-.84-1.42 2.29 2.29 0 0 0-1.55-.55h-.02Zm10.74 6.7h-2.2v-7.87h1.44v6.2h.23l3.19-6.2h2.2V23h-1.44v-6.18h-.23L180.72 23Zm10.91-4.02c.42.13.76.34 1.04.67.28.32.4.71.4 1.17 0 .43-.12.84-.37 1.2-.26.34-.62.62-1.1.83-.47.2-1.01.3-1.62.3-.84 0-1.55-.18-2.14-.58a2.86 2.86 0 0 1-1.2-1.58l1.39-.23c.33.73.97 1.09 1.93 1.09.53 0 .92-.1 1.2-.3a.99.99 0 0 0 .43-.83.89.89 0 0 0-.4-.76c-.25-.2-.65-.3-1.22-.3h-1.04v-1.3h1.04c.48 0 .86-.09 1.11-.28a.84.84 0 0 0 .4-.73.9.9 0 0 0-.43-.8c-.28-.2-.61-.3-1.02-.3s-.75.1-1.07.3c-.31.19-.55.45-.7.78l-1.39-.24a2.9 2.9 0 0 1 1.2-1.57 3.57 3.57 0 0 1 2.01-.56c.55 0 1.04.1 1.47.29.45.19.8.46 1.04.81a1.9 1.9 0 0 1 .02 2.28c-.24.3-.56.52-.97.63v.01Z"/></svg>