<?xml version="1.0" encoding="UTF-8"?> <svg xmlns="http://www.w3.org/2000/svg" width="290" height="66" viewBox="0 0 290 66" fill="none"><rect x="0.568538" y="0.568538" width="288.863" height="64.0553" rx="10.0442" stroke="white" stroke-opacity="0.2" stroke-width="1.13708"></rect><path d="M90.788 27.1106C90.5855 27.2658 87.0094 29.256 87.0094 33.6812C87.0094 38.7997 91.5598 40.6105 91.696 40.6554C91.6751 40.7657 90.9731 43.1353 89.2968 45.5497C87.8022 47.6743 86.2411 49.7955 83.8664 49.7955C81.4917 49.7955 80.8805 48.4331 78.1391 48.4331C75.4675 48.4331 74.5176 49.8404 72.3455 49.8404C70.1733 49.8404 68.6577 47.8744 66.915 45.46C64.8965 42.6248 63.2656 38.2203 63.2656 34.0399C63.2656 27.3348 67.6798 23.7788 72.0242 23.7788C74.3326 23.7788 76.2568 25.2757 77.7061 25.2757C79.0855 25.2757 81.2367 23.6891 83.8629 23.6891C84.8582 23.6891 88.4342 23.7788 90.788 27.1106ZM82.6162 20.8505C83.7023 19.5777 84.4705 17.8118 84.4705 16.0458C84.4705 15.8009 84.4496 15.5526 84.4042 15.3525C82.6371 15.4181 80.5348 16.5149 79.2671 17.967C78.2718 19.0845 77.3429 20.8505 77.3429 22.6405C77.3429 22.9096 77.3883 23.1786 77.4092 23.2648C77.521 23.2855 77.7026 23.3097 77.8842 23.3097C79.4697 23.3097 81.4637 22.2611 82.6162 20.8505Z" fill="white"></path><path d="M105.956 22.6131C105.104 22.6131 104.38 22.4664 103.784 22.1731C103.197 21.8707 102.748 21.4445 102.437 20.8946C102.125 20.3355 101.951 19.6665 101.914 18.8874C101.905 18.5117 101.901 18.1084 101.901 17.6776C101.901 17.2469 101.905 16.8345 101.914 16.4404C101.951 15.6705 102.125 15.006 102.437 14.4469C102.757 13.8879 103.211 13.4617 103.798 13.1684C104.393 12.866 105.113 12.7147 105.956 12.7147C106.579 12.7147 107.138 12.7972 107.633 12.9622C108.128 13.1272 108.55 13.3563 108.898 13.6496C109.246 13.9337 109.517 14.2682 109.709 14.6532C109.902 15.0381 110.002 15.4551 110.012 15.9042C110.021 15.9867 109.993 16.0554 109.929 16.1104C109.874 16.1654 109.805 16.1929 109.723 16.1929H108.417C108.316 16.1929 108.234 16.17 108.169 16.1242C108.105 16.0692 108.059 15.9821 108.032 15.8629C107.885 15.258 107.633 14.8456 107.276 14.6257C106.918 14.4057 106.474 14.2957 105.942 14.2957C105.328 14.2957 104.838 14.4698 104.471 14.8181C104.105 15.1572 103.908 15.7209 103.88 16.5091C103.853 17.2606 103.853 18.0305 103.88 18.8187C103.908 19.6069 104.105 20.1751 104.471 20.5234C104.838 20.8625 105.328 21.0321 105.942 21.0321C106.474 21.0321 106.918 20.9221 107.276 20.7021C107.633 20.473 107.885 20.0606 108.032 19.4648C108.059 19.3365 108.105 19.2495 108.169 19.2036C108.234 19.1578 108.316 19.1349 108.417 19.1349H109.723C109.805 19.1349 109.874 19.1624 109.929 19.2174C109.993 19.2724 110.021 19.3411 110.012 19.4236C110.002 19.8727 109.902 20.2897 109.709 20.6746C109.517 21.0596 109.246 21.3987 108.898 21.692C108.55 21.9761 108.128 22.2006 107.633 22.3656C107.138 22.5306 106.579 22.6131 105.956 22.6131ZM111.807 22.4756C111.715 22.4756 111.637 22.4435 111.573 22.3794C111.509 22.3152 111.477 22.2373 111.477 22.1456V15.6567C111.477 15.5651 111.509 15.4872 111.573 15.423C111.637 15.3589 111.715 15.3268 111.807 15.3268H112.934C113.026 15.3268 113.104 15.3589 113.168 15.423C113.232 15.4872 113.264 15.5651 113.264 15.6567V18.1176H114.254L115.931 15.5468C115.968 15.4826 116.014 15.4322 116.069 15.3955C116.133 15.3497 116.215 15.3268 116.316 15.3268H117.54C117.631 15.3268 117.705 15.3497 117.76 15.3955C117.815 15.4414 117.842 15.5009 117.842 15.5742C117.842 15.6017 117.833 15.6338 117.815 15.6705C117.806 15.698 117.792 15.7255 117.773 15.753L115.794 18.7637L118.062 22.0494C118.108 22.1044 118.131 22.164 118.131 22.2281C118.131 22.3014 118.103 22.361 118.048 22.4068C117.993 22.4527 117.925 22.4756 117.842 22.4756H116.454C116.362 22.4756 116.284 22.4573 116.22 22.4206C116.165 22.3839 116.115 22.3335 116.069 22.2694L114.254 19.5748H113.264V22.1456C113.264 22.2373 113.232 22.3152 113.168 22.3794C113.104 22.4435 113.026 22.4756 112.934 22.4756H111.807ZM121.407 22.6131C120.93 22.6131 120.5 22.5214 120.115 22.3381C119.73 22.1456 119.423 21.8936 119.193 21.582C118.974 21.2612 118.864 20.9038 118.864 20.5097C118.864 19.8681 119.12 19.3594 119.633 18.9837C120.156 18.5987 120.843 18.3421 121.696 18.2138L123.579 17.9388V17.6501C123.579 17.2652 123.483 16.9673 123.29 16.7565C123.098 16.5457 122.768 16.4404 122.3 16.4404C121.971 16.4404 121.7 16.5091 121.489 16.6466C121.288 16.7749 121.136 16.949 121.036 17.169C120.962 17.2881 120.857 17.3477 120.719 17.3477H119.633C119.533 17.3477 119.455 17.3202 119.4 17.2652C119.354 17.2102 119.331 17.1369 119.331 17.0452C119.34 16.8986 119.4 16.7199 119.51 16.5091C119.62 16.2983 119.794 16.0967 120.032 15.9042C120.27 15.7026 120.577 15.533 120.953 15.3955C121.329 15.258 121.783 15.1893 122.314 15.1893C122.892 15.1893 123.377 15.2626 123.771 15.4093C124.175 15.5468 124.496 15.7346 124.734 15.9729C124.972 16.2112 125.146 16.4908 125.256 16.8115C125.366 17.1323 125.421 17.4714 125.421 17.8289V22.1456C125.421 22.2373 125.389 22.3152 125.325 22.3794C125.261 22.4435 125.183 22.4756 125.091 22.4756H123.978C123.877 22.4756 123.794 22.4435 123.73 22.3794C123.675 22.3152 123.648 22.2373 123.648 22.1456V21.6095C123.529 21.7836 123.368 21.9486 123.167 22.1044C122.965 22.251 122.717 22.3748 122.424 22.4756C122.14 22.5672 121.801 22.6131 121.407 22.6131ZM121.874 21.307C122.195 21.307 122.484 21.2383 122.74 21.1008C123.006 20.9633 123.212 20.7525 123.359 20.4684C123.515 20.1751 123.593 19.8085 123.593 19.3686V19.0799L122.218 19.2999C121.677 19.3824 121.274 19.5152 121.008 19.6986C120.742 19.8819 120.609 20.1064 120.609 20.3722C120.609 20.5738 120.669 20.748 120.788 20.8946C120.917 21.0321 121.077 21.1375 121.269 21.2108C121.462 21.275 121.663 21.307 121.874 21.307ZM131.708 22.4756C131.616 22.4756 131.538 22.4435 131.474 22.3794C131.41 22.3152 131.378 22.2373 131.378 22.1456V19.8085C131.149 20.0102 130.865 20.1614 130.526 20.2622C130.196 20.3539 129.82 20.3997 129.398 20.3997C128.564 20.3997 127.918 20.2026 127.46 19.8085C127.011 19.4053 126.786 18.7591 126.786 17.8701V15.6567C126.786 15.5651 126.814 15.4872 126.869 15.423C126.933 15.3589 127.015 15.3268 127.116 15.3268H128.298C128.39 15.3268 128.468 15.3589 128.532 15.423C128.596 15.4872 128.628 15.5651 128.628 15.6567V17.7739C128.628 18.1405 128.725 18.4063 128.917 18.5712C129.119 18.727 129.439 18.805 129.879 18.805C130.329 18.805 130.691 18.7454 130.965 18.6262C131.24 18.5071 131.378 18.2963 131.378 17.9938V15.6567C131.378 15.5651 131.41 15.4872 131.474 15.423C131.538 15.3589 131.616 15.3268 131.708 15.3268H132.945C133.037 15.3268 133.115 15.3589 133.179 15.423C133.243 15.4872 133.275 15.5651 133.275 15.6567V22.1456C133.275 22.2373 133.243 22.3152 133.179 22.3794C133.115 22.4435 133.037 22.4756 132.945 22.4756H131.708ZM137.209 22.6131C136.732 22.6131 136.301 22.5214 135.916 22.3381C135.531 22.1456 135.224 21.8936 134.995 21.582C134.775 21.2612 134.665 20.9038 134.665 20.5097C134.665 19.8681 134.922 19.3594 135.435 18.9837C135.958 18.5987 136.645 18.3421 137.497 18.2138L139.381 17.9388V17.6501C139.381 17.2652 139.285 16.9673 139.092 16.7565C138.9 16.5457 138.57 16.4404 138.102 16.4404C137.772 16.4404 137.502 16.5091 137.291 16.6466C137.09 16.7749 136.938 16.949 136.837 17.169C136.764 17.2881 136.659 17.3477 136.521 17.3477H135.435C135.334 17.3477 135.256 17.3202 135.201 17.2652C135.156 17.2102 135.133 17.1369 135.133 17.0452C135.142 16.8986 135.201 16.7199 135.311 16.5091C135.421 16.2983 135.596 16.0967 135.834 15.9042C136.072 15.7026 136.379 15.533 136.755 15.3955C137.131 15.258 137.584 15.1893 138.116 15.1893C138.693 15.1893 139.179 15.2626 139.573 15.4093C139.977 15.5468 140.297 15.7346 140.536 15.9729C140.774 16.2112 140.948 16.4908 141.058 16.8115C141.168 17.1323 141.223 17.4714 141.223 17.8289V22.1456C141.223 22.2373 141.191 22.3152 141.127 22.3794C141.063 22.4435 140.985 22.4756 140.893 22.4756H139.779C139.679 22.4756 139.596 22.4435 139.532 22.3794C139.477 22.3152 139.45 22.2373 139.45 22.1456V21.6095C139.33 21.7836 139.17 21.9486 138.968 22.1044C138.767 22.251 138.519 22.3748 138.226 22.4756C137.942 22.5672 137.603 22.6131 137.209 22.6131ZM137.676 21.307C137.997 21.307 138.286 21.2383 138.542 21.1008C138.808 20.9633 139.014 20.7525 139.161 20.4684C139.317 20.1751 139.395 19.8085 139.395 19.3686V19.0799L138.02 19.2999C137.479 19.3824 137.076 19.5152 136.81 19.6986C136.544 19.8819 136.411 20.1064 136.411 20.3722C136.411 20.5738 136.471 20.748 136.59 20.8946C136.718 21.0321 136.879 21.1375 137.071 21.2108C137.264 21.275 137.465 21.307 137.676 21.307ZM145.173 22.4756C145.072 22.4756 144.989 22.4435 144.925 22.3794C144.87 22.3152 144.843 22.2373 144.843 22.1456V16.784H142.602C142.501 16.784 142.418 16.752 142.354 16.6878C142.299 16.6237 142.272 16.5457 142.272 16.4541V15.6567C142.272 15.5651 142.299 15.4872 142.354 15.423C142.418 15.3589 142.501 15.3268 142.602 15.3268H148.843C148.944 15.3268 149.026 15.3589 149.091 15.423C149.155 15.4872 149.187 15.5651 149.187 15.6567V16.4541C149.187 16.5457 149.155 16.6237 149.091 16.6878C149.026 16.752 148.944 16.784 148.843 16.784H146.616V22.1456C146.616 22.2373 146.584 22.3152 146.52 22.3794C146.456 22.4435 146.378 22.4756 146.286 22.4756H145.173ZM150.607 22.4756C150.515 22.4756 150.437 22.4435 150.373 22.3794C150.309 22.3152 150.277 22.2373 150.277 22.1456V15.6567C150.277 15.5651 150.309 15.4872 150.373 15.423C150.437 15.3589 150.515 15.3268 150.607 15.3268H151.761C151.853 15.3268 151.931 15.3589 151.995 15.423C152.059 15.4872 152.091 15.5651 152.091 15.6567V17.5952H153.507C154.442 17.5952 155.143 17.8151 155.611 18.255C156.078 18.695 156.312 19.2999 156.312 20.0697C156.312 20.8671 156.06 21.4674 155.556 21.8707C155.052 22.274 154.332 22.4756 153.397 22.4756H150.607ZM152.064 21.1696H153.356C153.805 21.1696 154.135 21.0871 154.346 20.9221C154.566 20.7571 154.676 20.473 154.676 20.0697C154.676 19.6756 154.571 19.3824 154.36 19.1899C154.158 18.9974 153.824 18.9012 153.356 18.9012H152.064V21.1696ZM161.024 22.4756C160.942 22.4756 160.869 22.4435 160.805 22.3794C160.74 22.3152 160.708 22.2419 160.708 22.1594V15.6567C160.708 15.5651 160.74 15.4872 160.805 15.423C160.869 15.3589 160.947 15.3268 161.038 15.3268H162.179C162.28 15.3268 162.358 15.3589 162.413 15.423C162.477 15.4872 162.509 15.5651 162.509 15.6567V21.0871L162.028 20.7434L165.809 15.5468C165.855 15.4826 165.905 15.4322 165.96 15.3955C166.015 15.3497 166.088 15.3268 166.18 15.3268H167.225C167.307 15.3268 167.38 15.3589 167.445 15.423C167.509 15.478 167.541 15.5468 167.541 15.6292V22.1456C167.541 22.2373 167.509 22.3152 167.445 22.3794C167.38 22.4435 167.303 22.4756 167.211 22.4756H166.07C165.969 22.4756 165.887 22.4435 165.822 22.3794C165.767 22.3152 165.74 22.2373 165.74 22.1456V16.9628L166.249 17.0315L162.44 22.2556C162.404 22.3106 162.353 22.361 162.289 22.4068C162.234 22.4527 162.161 22.4756 162.069 22.4756H161.024ZM172.023 22.6131C171.437 22.6131 170.942 22.5443 170.539 22.4068C170.144 22.2694 169.828 22.0952 169.59 21.8844C169.361 21.6736 169.191 21.4537 169.081 21.2245C168.98 20.9863 168.921 20.7709 168.903 20.5784C168.903 20.4959 168.93 20.4318 168.985 20.3859C169.04 20.3401 169.1 20.3172 169.164 20.3172H170.291C170.383 20.3172 170.451 20.3355 170.497 20.3722C170.552 20.4088 170.598 20.4684 170.635 20.5509C170.726 20.8259 170.896 21.0183 171.143 21.1283C171.4 21.2383 171.716 21.2933 172.092 21.2933C172.349 21.2933 172.578 21.2612 172.779 21.1971C172.981 21.1237 173.137 21.0183 173.247 20.8809C173.357 20.7342 173.412 20.5555 173.412 20.3447C173.412 20.0422 173.325 19.8131 173.151 19.6573C172.976 19.4923 172.692 19.4099 172.298 19.4099H171.542C171.45 19.4099 171.377 19.3824 171.322 19.3274C171.267 19.2724 171.24 19.1991 171.24 19.1074V18.53C171.24 18.4475 171.267 18.3788 171.322 18.3238C171.377 18.2596 171.45 18.2275 171.542 18.2275H172.243C172.573 18.2275 172.821 18.168 172.986 18.0488C173.151 17.9205 173.233 17.7235 173.233 17.4577C173.233 17.3019 173.192 17.1552 173.109 17.0178C173.036 16.8711 172.912 16.752 172.738 16.6603C172.564 16.5687 172.321 16.5228 172.01 16.5228C171.579 16.5228 171.272 16.5916 171.088 16.7291C170.905 16.8665 170.772 17.0727 170.69 17.3477C170.653 17.4302 170.607 17.4898 170.552 17.5264C170.506 17.5631 170.433 17.5814 170.332 17.5814H169.246C169.173 17.5814 169.109 17.5585 169.054 17.5127C169.008 17.4668 168.985 17.4027 168.985 17.3202C169.003 17.0727 169.068 16.8253 169.178 16.5778C169.297 16.3212 169.475 16.0875 169.714 15.8767C169.961 15.6659 170.273 15.5009 170.649 15.3818C171.024 15.2535 171.483 15.1893 172.023 15.1893C172.756 15.1893 173.338 15.2901 173.769 15.4918C174.2 15.6934 174.507 15.95 174.69 16.2616C174.883 16.5641 174.979 16.8803 174.979 17.2102C174.979 17.5493 174.915 17.8426 174.787 18.0901C174.667 18.3375 174.443 18.5392 174.113 18.695C174.525 18.8508 174.809 19.0891 174.965 19.4099C175.121 19.7306 175.204 20.0835 175.213 20.4684C175.213 20.9267 175.08 21.3162 174.814 21.637C174.548 21.9486 174.177 22.1915 173.7 22.3656C173.224 22.5306 172.665 22.6131 172.023 22.6131Z" fill="white"></path><path d="M102.192 48.2256C102.036 48.2256 101.891 48.1673 101.755 48.0508C101.638 47.9342 101.58 47.7885 101.58 47.6137C101.58 47.536 101.599 47.4486 101.638 47.3515L108.66 28.5579C108.718 28.3637 108.825 28.1986 108.981 28.0626C109.155 27.9072 109.389 27.8295 109.68 27.8295H112.856C113.147 27.8295 113.371 27.9072 113.526 28.0626C113.681 28.1986 113.798 28.3637 113.876 28.5579L120.898 47.3515C120.917 47.4486 120.927 47.536 120.927 47.6137C120.927 47.7885 120.869 47.9342 120.752 48.0508C120.636 48.1673 120.5 48.2256 120.344 48.2256H117.809C117.537 48.2256 117.333 48.1673 117.197 48.0508C117.081 47.9148 117.003 47.7885 116.964 47.672L115.595 44.1172H106.941L105.572 47.672C105.533 47.7885 105.445 47.9148 105.309 48.0508C105.193 48.1673 104.999 48.2256 104.727 48.2256H102.192ZM107.961 40.7664H114.575L111.253 31.763L107.961 40.7664ZM121.986 53.7617C121.792 53.7617 121.627 53.6937 121.491 53.5577C121.355 53.4217 121.287 53.2566 121.287 53.0624V33.7735C121.287 33.5793 121.355 33.4141 121.491 33.2782C121.627 33.1422 121.792 33.0742 121.986 33.0742H124.288C124.502 33.0742 124.667 33.1422 124.784 33.2782C124.919 33.4141 124.987 33.5793 124.987 33.7735V34.939C125.454 34.3174 126.066 33.8026 126.823 33.3947C127.581 32.9868 128.523 32.7828 129.649 32.7828C130.679 32.7828 131.573 32.948 132.33 33.2782C133.088 33.6084 133.719 34.0843 134.224 34.7059C134.729 35.3081 135.118 36.0268 135.389 36.8621C135.661 37.6973 135.817 38.62 135.856 39.6301C135.875 39.9603 135.885 40.3003 135.885 40.6499C135.885 40.9995 135.875 41.3492 135.856 41.6988C135.836 42.6701 135.691 43.5733 135.419 44.4086C135.147 45.2244 134.748 45.9432 134.224 46.5648C133.719 47.1669 133.088 47.6428 132.33 47.9925C131.573 48.3421 130.679 48.517 129.649 48.517C128.601 48.517 127.707 48.3324 126.969 47.9634C126.231 47.5749 125.629 47.0698 125.162 46.4482V53.0624C125.162 53.2566 125.094 53.4217 124.958 53.5577C124.842 53.6937 124.677 53.7617 124.463 53.7617H121.986ZM128.571 45.3993C129.407 45.3993 130.057 45.2244 130.524 44.8748C130.99 44.5057 131.32 44.0298 131.514 43.4471C131.728 42.8643 131.854 42.2233 131.893 41.524C131.932 40.9413 131.932 40.3585 131.893 39.7758C131.854 39.0765 131.728 38.4355 131.514 37.8527C131.32 37.27 130.99 36.8038 130.524 36.4541C130.057 36.0851 129.407 35.9005 128.571 35.9005C127.775 35.9005 127.124 36.0851 126.619 36.4541C126.134 36.8232 125.774 37.2991 125.541 37.8819C125.327 38.4452 125.201 39.0279 125.162 39.6301C125.143 39.9797 125.133 40.3488 125.133 40.7373C125.133 41.1258 125.143 41.5046 125.162 41.8737C125.182 42.4564 125.318 43.0197 125.57 43.5636C125.823 44.0881 126.192 44.5252 126.677 44.8748C127.163 45.2244 127.794 45.3993 128.571 45.3993ZM137.845 53.7617C137.65 53.7617 137.485 53.6937 137.349 53.5577C137.213 53.4217 137.145 53.2566 137.145 53.0624V33.7735C137.145 33.5793 137.213 33.4141 137.349 33.2782C137.485 33.1422 137.65 33.0742 137.845 33.0742H140.146C140.36 33.0742 140.525 33.1422 140.642 33.2782C140.778 33.4141 140.846 33.5793 140.846 33.7735V34.939C141.312 34.3174 141.924 33.8026 142.681 33.3947C143.439 32.9868 144.381 32.7828 145.508 32.7828C146.537 32.7828 147.431 32.948 148.188 33.2782C148.946 33.6084 149.577 34.0843 150.082 34.7059C150.587 35.3081 150.976 36.0268 151.248 36.8621C151.52 37.6973 151.675 38.62 151.714 39.6301C151.733 39.9603 151.743 40.3003 151.743 40.6499C151.743 40.9995 151.733 41.3492 151.714 41.6988C151.694 42.6701 151.549 43.5733 151.277 44.4086C151.005 45.2244 150.607 45.9432 150.082 46.5648C149.577 47.1669 148.946 47.6428 148.188 47.9925C147.431 48.3421 146.537 48.517 145.508 48.517C144.459 48.517 143.565 48.3324 142.827 47.9634C142.089 47.5749 141.487 47.0698 141.02 46.4482V53.0624C141.02 53.2566 140.952 53.4217 140.817 53.5577C140.7 53.6937 140.535 53.7617 140.321 53.7617H137.845ZM144.43 45.3993C145.265 45.3993 145.916 45.2244 146.382 44.8748C146.848 44.5057 147.178 44.0298 147.372 43.4471C147.586 42.8643 147.712 42.2233 147.751 41.524C147.79 40.9413 147.79 40.3585 147.751 39.7758C147.712 39.0765 147.586 38.4355 147.372 37.8527C147.178 37.27 146.848 36.8038 146.382 36.4541C145.916 36.0851 145.265 35.9005 144.43 35.9005C143.633 35.9005 142.982 36.0851 142.477 36.4541C141.992 36.8232 141.632 37.2991 141.399 37.8819C141.186 38.4452 141.059 39.0279 141.02 39.6301C141.001 39.9797 140.991 40.3488 140.991 40.7373C140.991 41.1258 141.001 41.5046 141.02 41.8737C141.04 42.4564 141.176 43.0197 141.428 43.5636C141.681 44.0881 142.05 44.5252 142.536 44.8748C143.021 45.2244 143.653 45.3993 144.43 45.3993ZM165.023 48.517C163.216 48.517 161.701 48.2547 160.478 47.7303C159.273 47.1864 158.351 46.4871 157.71 45.6324C157.088 44.7583 156.758 43.8453 156.719 42.8935C156.719 42.7186 156.777 42.573 156.894 42.4564C157.01 42.3399 157.156 42.2816 157.331 42.2816H159.924C160.176 42.2816 160.361 42.3399 160.478 42.4564C160.614 42.5535 160.73 42.6798 160.827 42.8352C160.944 43.2043 161.167 43.5733 161.497 43.9424C161.828 44.2921 162.274 44.5834 162.838 44.8165C163.42 45.0496 164.149 45.1662 165.023 45.1662C166.422 45.1662 167.461 44.9331 168.141 44.4669C168.84 44.0007 169.19 43.3694 169.19 42.573C169.19 42.0096 169.005 41.5629 168.636 41.2326C168.267 40.883 167.694 40.5722 166.917 40.3003C166.159 40.0089 165.149 39.7078 163.887 39.397C162.43 39.0474 161.206 38.6297 160.215 38.1441C159.244 37.639 158.506 37.0077 158.001 36.2502C157.515 35.4926 157.272 34.5311 157.272 33.3656C157.272 32.2389 157.574 31.2386 158.176 30.3644C158.797 29.4903 159.671 28.8007 160.798 28.2957C161.944 27.7907 163.304 27.5381 164.877 27.5381C166.14 27.5381 167.257 27.713 168.228 28.0626C169.199 28.3928 170.005 28.8396 170.646 29.4029C171.287 29.9468 171.773 30.5393 172.103 31.1803C172.453 31.8019 172.638 32.4138 172.657 33.0159C172.657 33.1713 172.599 33.317 172.482 33.453C172.385 33.5695 172.239 33.6278 172.045 33.6278H169.335C169.18 33.6278 169.025 33.589 168.869 33.5113C168.714 33.4336 168.587 33.2879 168.49 33.0742C168.374 32.472 167.995 31.9573 167.354 31.5299C166.713 31.1026 165.887 30.8889 164.877 30.8889C163.828 30.8889 162.983 31.0832 162.342 31.4717C161.701 31.8602 161.381 32.4623 161.381 33.2782C161.381 33.8221 161.536 34.2786 161.847 34.6476C162.177 34.9973 162.692 35.3081 163.391 35.58C164.11 35.852 165.052 36.1433 166.218 36.4541C167.869 36.8232 169.219 37.2506 170.268 37.7362C171.317 38.2218 172.084 38.8434 172.57 39.601C173.055 40.3391 173.298 41.2812 173.298 42.4273C173.298 43.7093 172.948 44.8068 172.249 45.7198C171.569 46.6133 170.608 47.3029 169.364 47.7885C168.121 48.2741 166.674 48.517 165.023 48.517ZM181.095 48.2256C179.93 48.2256 178.949 48.0216 178.152 47.6137C177.356 47.2058 176.763 46.6036 176.375 45.8072C175.986 44.9914 175.792 43.9813 175.792 42.7769V36.1628H173.49C173.296 36.1628 173.131 36.0948 172.995 35.9588C172.859 35.8228 172.791 35.6577 172.791 35.4635V33.7735C172.791 33.5793 172.859 33.4141 172.995 33.2782C173.131 33.1422 173.296 33.0742 173.49 33.0742H175.792V28.2374C175.792 28.0432 175.85 27.8781 175.967 27.7421C176.103 27.6061 176.278 27.5381 176.491 27.5381H178.852C179.046 27.5381 179.211 27.6061 179.347 27.7421C179.483 27.8781 179.551 28.0432 179.551 28.2374V33.0742H183.193C183.387 33.0742 183.552 33.1422 183.688 33.2782C183.824 33.4141 183.892 33.5793 183.892 33.7735V35.4635C183.892 35.6577 183.824 35.8228 183.688 35.9588C183.552 36.0948 183.387 36.1628 183.193 36.1628H179.551V42.4855C179.551 43.282 179.687 43.9036 179.959 44.3503C180.25 44.7971 180.745 45.0205 181.445 45.0205H183.455C183.65 45.0205 183.815 45.0885 183.951 45.2244C184.087 45.3604 184.155 45.5255 184.155 45.7198V47.5263C184.155 47.7205 184.087 47.8857 183.951 48.0216C183.815 48.1576 183.65 48.2256 183.455 48.2256H181.095ZM191.401 48.517C189.847 48.517 188.536 48.245 187.468 47.7011C186.419 47.1572 185.613 46.3899 185.049 45.3993C184.505 44.4086 184.195 43.2528 184.117 41.9319C184.098 41.5823 184.088 41.1549 184.088 40.6499C184.088 40.1449 184.098 39.7175 184.117 39.3679C184.195 38.0275 184.515 36.8718 185.079 35.9005C185.661 34.9099 186.477 34.1426 187.526 33.5987C188.594 33.0548 189.886 32.7828 191.401 32.7828C192.916 32.7828 194.198 33.0548 195.247 33.5987C196.316 34.1426 197.132 34.9099 197.695 35.9005C198.278 36.8718 198.608 38.0275 198.686 39.3679C198.705 39.7175 198.715 40.1449 198.715 40.6499C198.715 41.1549 198.705 41.5823 198.686 41.9319C198.608 43.2528 198.287 44.4086 197.724 45.3993C197.18 46.3899 196.374 47.1572 195.306 47.7011C194.257 48.245 192.955 48.517 191.401 48.517ZM191.401 45.6324C192.431 45.6324 193.227 45.3119 193.791 44.6708C194.354 44.0104 194.665 43.0489 194.723 41.7863C194.742 41.4949 194.752 41.1161 194.752 40.6499C194.752 40.1837 194.742 39.8049 194.723 39.5135C194.665 38.2704 194.354 37.3185 193.791 36.6581C193.227 35.9977 192.431 35.6674 191.401 35.6674C190.372 35.6674 189.575 35.9977 189.012 36.6581C188.449 37.3185 188.138 38.2704 188.08 39.5135C188.06 39.8049 188.051 40.1837 188.051 40.6499C188.051 41.1161 188.06 41.4949 188.08 41.7863C188.138 43.0489 188.449 44.0104 189.012 44.6708C189.575 45.3119 190.372 45.6324 191.401 45.6324ZM200.603 48.2256C200.409 48.2256 200.243 48.1576 200.107 48.0216C199.971 47.8857 199.903 47.7205 199.903 47.5263V33.8026C199.903 33.589 199.971 33.4141 200.107 33.2782C200.243 33.1422 200.409 33.0742 200.603 33.0742H202.963C203.157 33.0742 203.322 33.1422 203.458 33.2782C203.614 33.4141 203.691 33.589 203.691 33.8026V34.9973C204.138 34.3757 204.711 33.8998 205.41 33.5695C206.129 33.2393 206.955 33.0742 207.887 33.0742H209.082C209.295 33.0742 209.46 33.1422 209.577 33.2782C209.713 33.4141 209.781 33.5793 209.781 33.7735V35.8714C209.781 36.0656 209.713 36.2307 209.577 36.3667C209.46 36.5027 209.295 36.5707 209.082 36.5707H206.809C205.877 36.5707 205.148 36.8329 204.624 37.3574C204.119 37.8819 203.866 38.6006 203.866 39.5135V47.5263C203.866 47.7205 203.798 47.8857 203.662 48.0216C203.526 48.1576 203.351 48.2256 203.138 48.2256H200.603ZM216.341 48.517C214.185 48.517 212.476 47.8954 211.213 46.6522C209.951 45.409 209.271 43.6413 209.174 41.3492C209.154 41.1549 209.145 40.9121 209.145 40.6208C209.145 40.31 209.154 40.0672 209.174 39.8923C209.251 38.4355 209.582 37.1729 210.164 36.1045C210.767 35.0361 211.592 34.2203 212.641 33.657C213.69 33.0742 214.923 32.7828 216.341 32.7828C217.915 32.7828 219.236 33.1131 220.304 33.7735C221.372 34.4145 222.179 35.3178 222.722 36.4833C223.266 37.6293 223.538 38.9599 223.538 40.4751V41.087C223.538 41.2812 223.47 41.4463 223.334 41.5823C223.198 41.7183 223.024 41.7863 222.81 41.7863H213.136C213.136 41.7863 213.136 41.8154 213.136 41.8737C213.136 41.9319 213.136 41.9805 213.136 42.0194C213.156 42.6992 213.282 43.3305 213.515 43.9133C213.768 44.4766 214.127 44.9331 214.593 45.2827C215.079 45.6324 215.652 45.8072 216.312 45.8072C216.856 45.8072 217.313 45.7295 217.682 45.5741C218.051 45.3993 218.352 45.205 218.585 44.9914C218.818 44.7777 218.983 44.6029 219.08 44.4669C219.255 44.2338 219.391 44.0978 219.488 44.059C219.605 44.0007 219.77 43.9715 219.984 43.9715H222.489C222.684 43.9715 222.839 44.0298 222.956 44.1464C223.092 44.2629 223.15 44.4086 223.13 44.5834C223.111 44.8942 222.946 45.273 222.635 45.7198C222.344 46.1666 221.916 46.6036 221.353 47.031C220.79 47.4583 220.081 47.8177 219.226 48.109C218.391 48.381 217.429 48.517 216.341 48.517ZM213.136 39.3387H219.576V39.2513C219.576 38.4937 219.449 37.8333 219.197 37.27C218.944 36.7067 218.575 36.2599 218.09 35.9297C217.604 35.5994 217.021 35.4343 216.341 35.4343C215.662 35.4343 215.079 35.5994 214.593 35.9297C214.108 36.2599 213.739 36.7067 213.486 37.27C213.253 37.8333 213.136 38.4937 213.136 39.2513V39.3387Z" fill="white"></path></svg> 