<svg xmlns="http://www.w3.org/2000/svg" width="290" height="66" fill="none"><path fill="#fff" d="M90.79 27.11c-.2.16-3.78 2.15-3.78 6.57 0 5.12 4.55 6.93 4.69 6.97-.02.12-.73 2.49-2.4 4.9-1.5 2.12-3.06 4.25-5.43 4.25-2.38 0-2.99-1.37-5.73-1.37-2.67 0-3.62 1.41-5.8 1.41-2.17 0-3.68-1.97-5.43-4.38a20.94 20.94 0 0 1-3.65-11.42c0-6.7 4.42-10.26 8.76-10.26 2.31 0 4.24 1.5 5.69 1.5 1.38 0 3.53-1.6 6.15-1.6 1 0 4.57.1 6.93 3.43Zm-8.17-6.26a7.64 7.64 0 0 0 1.85-4.8c0-.25-.02-.5-.07-.7a7.85 7.85 0 0 0-5.13 2.62 7.45 7.45 0 0 0-1.93 4.67c0 .27.05.54.07.62.11.02.3.05.47.05 1.59 0 3.58-1.05 4.74-2.46Zm23.34 1.76c-.86 0-1.58-.14-2.18-.44a3.18 3.18 0 0 1-1.34-1.28 4.52 4.52 0 0 1-.53-2 54.35 54.35 0 0 1 0-2.45c.04-.77.22-1.43.53-2 .32-.55.77-.98 1.36-1.27.6-.3 1.31-.45 2.16-.45.62 0 1.18.08 1.67.24.5.17.92.4 1.27.69A2.9 2.9 0 0 1 110 15.9a.23.23 0 0 1-.08.21.28.28 0 0 1-.2.08h-1.31a.42.42 0 0 1-.25-.07.47.47 0 0 1-.14-.26c-.14-.6-.4-1.01-.75-1.23a2.5 2.5 0 0 0-1.34-.33c-.61 0-1.1.17-1.47.52-.36.34-.56.9-.59 1.69a32.93 32.93 0 0 0 0 2.3c.03.8.23 1.37.6 1.71.36.34.85.51 1.46.51.53 0 .98-.1 1.34-.33.35-.23.6-.64.75-1.23.03-.13.08-.22.14-.27a.42.42 0 0 1 .25-.07h1.3a.28.28 0 0 1 .2.09.23.23 0 0 1 .1.2 2.9 2.9 0 0 1-.31 1.25 3.18 3.18 0 0 1-.81 1.02c-.35.29-.77.51-1.27.68a5.29 5.29 0 0 1-1.67.24Zm5.85-.13a.32.32 0 0 1-.24-.1.32.32 0 0 1-.1-.23v-6.5c0-.08.04-.16.1-.23a.32.32 0 0 1 .24-.1h1.12c.1 0 .17.04.24.1a.32.32 0 0 1 .1.24v2.46h.98l1.68-2.57a.41.41 0 0 1 .39-.22h1.22c.1 0 .17.02.22.07a.22.22 0 0 1 .08.17c0 .03 0 .06-.03.1a.32.32 0 0 1-.04.08l-1.98 3.01 2.27 3.29a.27.27 0 0 1 .07.18.22.22 0 0 1-.08.18.31.31 0 0 1-.2.07h-1.4a.46.46 0 0 1-.23-.06.6.6 0 0 1-.15-.15l-1.82-2.7h-.99v2.57c0 .1-.03.17-.1.24a.32.32 0 0 1-.23.1h-1.12Zm9.6.13c-.48 0-.91-.09-1.3-.27a2.52 2.52 0 0 1-.92-.76 1.86 1.86 0 0 1-.33-1.07c0-.64.26-1.15.77-1.53a4.58 4.58 0 0 1 2.07-.77l1.88-.27v-.29c0-.38-.1-.68-.29-.9-.2-.2-.52-.31-.99-.31-.33 0-.6.07-.81.2a1.2 1.2 0 0 0-.45.53.35.35 0 0 1-.32.18h-1.09a.32.32 0 0 1-.23-.09.33.33 0 0 1-.07-.22c.01-.14.07-.32.18-.53.11-.21.28-.41.52-.6.24-.2.55-.38.92-.51.38-.14.83-.21 1.36-.21.58 0 1.07.07 1.46.22a2.17 2.17 0 0 1 1.48 1.4c.12.32.17.66.17 1.02v4.32c0 .09-.03.17-.1.23a.32.32 0 0 1-.23.1h-1.11a.34.34 0 0 1-.25-.1.35.35 0 0 1-.08-.23v-.54a2.2 2.2 0 0 1-1.23.87 3.33 3.33 0 0 1-1.01.13Zm.46-1.3c.32 0 .61-.07.87-.2.27-.15.47-.36.62-.64.15-.3.23-.66.23-1.1v-.29l-1.37.22c-.54.08-.95.21-1.21.4-.27.18-.4.4-.4.67 0 .2.06.38.18.52.13.14.29.25.48.32.2.06.4.1.6.1Zm9.84 1.17a.32.32 0 0 1-.24-.1.32.32 0 0 1-.1-.23V19.8a2.23 2.23 0 0 1-.84.45 4.22 4.22 0 0 1-1.13.14c-.84 0-1.48-.2-1.94-.6-.45-.4-.67-1.04-.67-1.93v-2.21c0-.1.02-.17.08-.24a.33.33 0 0 1 .25-.1h1.18c.09 0 .17.04.23.1a.32.32 0 0 1 .1.24v2.11c0 .37.1.64.29.8.2.16.52.23.96.23.45 0 .81-.06 1.08-.17a.64.64 0 0 0 .42-.64v-2.33c0-.1.03-.17.1-.24a.32.32 0 0 1 .23-.1h1.23c.1 0 .17.04.24.1a.32.32 0 0 1 .1.24v6.49c0 .09-.04.17-.1.23a.32.32 0 0 1-.24.1h-1.23Zm5.5.13a2.97 2.97 0 0 1-1.3-.27 2.51 2.51 0 0 1-.91-.76 1.85 1.85 0 0 1-.33-1.07c0-.64.25-1.15.77-1.53a4.58 4.58 0 0 1 2.06-.77l1.88-.27v-.29c0-.38-.1-.68-.29-.9-.19-.2-.52-.31-.99-.31-.33 0-.6.07-.8.2a1.2 1.2 0 0 0-.46.53.35.35 0 0 1-.32.18h-1.09a.32.32 0 0 1-.23-.09.34.34 0 0 1-.07-.22c.01-.14.07-.32.18-.53.11-.21.29-.41.52-.6.24-.2.55-.38.92-.51.38-.14.83-.21 1.37-.21.57 0 1.06.07 1.45.22.4.14.73.33.97.56.23.24.4.52.52.84.1.32.16.66.16 1.02v4.32c0 .09-.03.17-.1.23a.32.32 0 0 1-.23.1h-1.11a.34.34 0 0 1-.25-.1.35.35 0 0 1-.08-.23v-.54a2.2 2.2 0 0 1-.48.5 2.8 2.8 0 0 1-.74.37 3.33 3.33 0 0 1-1.02.13Zm.47-1.3c.32 0 .6-.07.86-.2.27-.15.47-.36.62-.64.16-.3.24-.66.24-1.1v-.29l-1.38.22c-.54.08-.94.21-1.21.4-.27.18-.4.4-.4.67 0 .2.06.38.18.52.13.14.29.25.48.32.2.06.4.1.6.1Zm7.5 1.17a.34.34 0 0 1-.26-.1.35.35 0 0 1-.08-.23v-5.37h-2.24a.34.34 0 0 1-.25-.1.35.35 0 0 1-.08-.23v-.8c0-.09.03-.16.08-.23a.34.34 0 0 1 .25-.1h6.24c.1 0 .19.04.25.1a.32.32 0 0 1 .1.24v.8c0 .09-.03.16-.1.23a.34.34 0 0 1-.25.1h-2.22v5.36c0 .09-.04.17-.1.23a.32.32 0 0 1-.23.1h-1.12Zm5.43 0a.32.32 0 0 1-.24-.1.32.32 0 0 1-.1-.23v-6.5c0-.08.04-.16.1-.23a.32.32 0 0 1 .24-.1h1.15c.1 0 .17.04.24.1a.32.32 0 0 1 .1.24v1.93h1.4c.94 0 1.64.22 2.11.66.47.44.7 1.05.7 1.82 0 .8-.25 1.4-.75 1.8-.5.4-1.23.6-2.16.6h-2.8Zm1.45-1.31h1.3c.44 0 .77-.08.99-.25.22-.16.33-.45.33-.85 0-.4-.1-.69-.32-.88-.2-.2-.54-.29-1-.29h-1.3v2.27Zm8.96 1.3a.3.3 0 0 1-.22-.1.3.3 0 0 1-.1-.21v-6.5c0-.1.04-.17.1-.24a.32.32 0 0 1 .24-.1h1.14c.1 0 .18.04.23.1a.32.32 0 0 1 .1.24v5.43l-.48-.35 3.78-5.2a.6.6 0 0 1 .15-.15.33.33 0 0 1 .22-.06h1.05a.3.3 0 0 1 .22.1.26.26 0 0 1 .1.2v6.52c0 .09-.04.17-.1.23a.32.32 0 0 1-.24.1h-1.14a.34.34 0 0 1-.25-.1.35.35 0 0 1-.08-.23v-5.19l.5.07-3.8 5.23a.58.58 0 0 1-.15.15.33.33 0 0 1-.22.07h-1.05Zm11 .14c-.58 0-1.08-.07-1.48-.2-.4-.14-.71-.32-.95-.53a2.21 2.21 0 0 1-.5-.66 2.2 2.2 0 0 1-.19-.64c0-.08.03-.15.08-.2a.28.28 0 0 1 .18-.06h1.13c.1 0 .16.01.2.05a.4.4 0 0 1 .14.18.91.91 0 0 0 .51.58c.26.1.58.16.95.16.26 0 .49-.03.69-.1.2-.07.36-.17.47-.3a.87.87 0 0 0 .16-.55c0-.3-.08-.53-.26-.68-.17-.17-.46-.25-.85-.25h-.76a.3.3 0 0 1-.22-.08.3.3 0 0 1-.08-.22v-.58a.28.28 0 0 1 .08-.2.28.28 0 0 1 .22-.1h.7c.33 0 .58-.06.75-.18.16-.13.24-.33.24-.6a.84.84 0 0 0-.12-.43.82.82 0 0 0-.37-.36 1.6 1.6 0 0 0-.73-.14c-.43 0-.74.07-.92.2-.19.15-.32.35-.4.63a.4.4 0 0 1-.14.18c-.04.03-.12.05-.22.05h-1.08a.3.3 0 0 1-.2-.07.26.26 0 0 1-.07-.19c.02-.25.09-.5.2-.74a2.13 2.13 0 0 1 .53-.7c.25-.21.56-.38.94-.5.37-.13.83-.2 1.37-.2.74 0 1.32.11 1.75.31a2 2 0 0 1 .92.77 1.89 1.89 0 0 1 .1 1.83c-.12.25-.35.45-.68.6.41.16.7.4.85.72.16.32.24.67.25 1.06 0 .46-.13.85-.4 1.17a2.6 2.6 0 0 1-1.11.73c-.48.16-1.04.24-1.68.24ZM102.2 48.23a.66.66 0 0 1-.44-.18.6.6 0 0 1-.17-.44.7.7 0 0 1 .06-.26l7.02-18.8a1 1 0 0 1 1.02-.73h3.18c.29.01.51.09.67.24.15.14.27.3.35.5l7.02 18.8.03.25a.6.6 0 0 1-.18.44.56.56 0 0 1-.4.18h-2.54c-.27 0-.48-.06-.61-.18a1.19 1.19 0 0 1-.24-.38l-1.36-3.55h-8.66l-1.37 3.55a1.03 1.03 0 0 1-.26.38c-.12.12-.31.18-.58.18h-2.54Zm5.77-7.46h6.62l-3.33-9-3.29 9Zm14.03 13a.67.67 0 0 1-.5-.21.67.67 0 0 1-.2-.5V33.77c0-.2.06-.36.2-.5a.67.67 0 0 1 .5-.2h2.3c.21 0 .38.07.5.2a.68.68 0 0 1 .2.5v1.17a5.54 5.54 0 0 1 1.83-1.55 5.9 5.9 0 0 1 2.83-.6c1.03 0 1.92.16 2.68.49.76.33 1.39.8 1.9 1.43.5.6.89 1.32 1.16 2.15.27.84.43 1.76.47 2.77a17.75 17.75 0 0 1 0 2.07 9.33 9.33 0 0 1-.44 2.7 6.5 6.5 0 0 1-1.2 2.16 5.37 5.37 0 0 1-1.89 1.43c-.76.35-1.65.53-2.68.53a5.94 5.94 0 0 1-2.68-.56 5.32 5.32 0 0 1-1.8-1.51v6.61c0 .2-.08.36-.21.5a.61.61 0 0 1-.5.2H122Zm6.58-8.37a3.2 3.2 0 0 0 1.95-.52c.47-.38.8-.85 1-1.43.2-.59.33-1.23.37-1.93.04-.58.04-1.16 0-1.74a6.62 6.62 0 0 0-.38-1.93 2.81 2.81 0 0 0-.99-1.4 3.07 3.07 0 0 0-1.95-.55c-.8 0-1.45.19-1.95.55a3.3 3.3 0 0 0-1.08 1.43 5.98 5.98 0 0 0-.38 1.75 22.1 22.1 0 0 0 0 2.24c.02.59.16 1.15.41 1.7.25.52.62.95 1.1 1.3.5.35 1.12.53 1.9.53Zm9.28 8.36a.68.68 0 0 1-.5-.2.67.67 0 0 1-.2-.5V33.77c0-.2.06-.36.2-.5a.68.68 0 0 1 .5-.2h2.3c.21 0 .37.07.5.2a.67.67 0 0 1 .2.5v1.17a5.52 5.52 0 0 1 1.83-1.55 5.9 5.9 0 0 1 2.83-.6c1.03 0 1.92.16 2.68.49.76.33 1.39.8 1.9 1.43.5.6.89 1.32 1.16 2.15.27.84.43 1.76.46 2.77a17.75 17.75 0 0 1 0 2.07 9.33 9.33 0 0 1-.43 2.7 6.48 6.48 0 0 1-1.2 2.16 5.37 5.37 0 0 1-1.9 1.43c-.75.35-1.64.53-2.67.53a5.94 5.94 0 0 1-2.68-.56 5.32 5.32 0 0 1-1.81-1.51v6.61c0 .2-.07.36-.2.5a.62.62 0 0 1-.5.2h-2.47Zm6.58-8.36a3.2 3.2 0 0 0 1.95-.52c.47-.38.8-.85 1-1.43.2-.59.33-1.23.37-1.93.04-.58.04-1.16 0-1.74a6.62 6.62 0 0 0-.38-1.93 2.81 2.81 0 0 0-.99-1.4 3.07 3.07 0 0 0-1.95-.55c-.8 0-1.45.19-1.95.55a3.3 3.3 0 0 0-1.08 1.43 6.02 6.02 0 0 0-.38 1.75 22.1 22.1 0 0 0 0 2.24c.02.59.16 1.15.4 1.7a3.16 3.16 0 0 0 3 1.84Zm20.6 3.12c-1.81 0-3.33-.27-4.55-.79a6.92 6.92 0 0 1-2.77-2.1 5.02 5.02 0 0 1-1-2.74.6.6 0 0 1 .18-.43.6.6 0 0 1 .44-.18h2.6c.25 0 .43.06.55.18.13.1.25.22.35.38.11.36.34.73.67 1.1.33.35.77.64 1.34.88a5.9 5.9 0 0 0 2.18.35c1.4 0 2.44-.24 3.12-.7.7-.47 1.05-1.1 1.05-1.9a1.7 1.7 0 0 0-.55-1.34 4.84 4.84 0 0 0-1.72-.93c-.76-.3-1.77-.6-3.03-.9a17.92 17.92 0 0 1-3.67-1.26 5.8 5.8 0 0 1-2.22-1.89 5.25 5.25 0 0 1-.73-2.88c0-1.13.3-2.13.9-3a6.27 6.27 0 0 1 2.63-2.07c1.14-.5 2.5-.76 4.08-.76 1.26 0 2.38.17 3.35.52.97.33 1.78.78 2.42 1.34a5.88 5.88 0 0 1 1.45 1.78 4 4 0 0 1 .56 1.84.66.66 0 0 1-.18.43c-.1.12-.24.18-.43.18h-2.72c-.15 0-.3-.04-.46-.12a.85.85 0 0 1-.38-.44c-.12-.6-.5-1.11-1.14-1.54a4.39 4.39 0 0 0-2.47-.64c-1.05 0-1.9.2-2.54.58-.64.39-.96 1-.96 1.8 0 .55.16 1 .47 1.38.33.35.84.66 1.54.93.72.27 1.66.56 2.83.87 1.65.37 3 .8 4.05 1.29a5.26 5.26 0 0 1 2.3 1.86c.48.74.73 1.68.73 2.83 0 1.28-.35 2.38-1.05 3.29a6.48 6.48 0 0 1-2.89 2.07 11.9 11.9 0 0 1-4.34.73Zm16.06-.3a6.4 6.4 0 0 1-2.94-.6 3.9 3.9 0 0 1-1.78-1.81 7.02 7.02 0 0 1-.58-3.03v-6.62h-2.3a.67.67 0 0 1-.5-.2.67.67 0 0 1-.2-.5v-1.69c0-.2.07-.36.2-.5a.67.67 0 0 1 .5-.2h2.3v-4.83c0-.2.06-.36.18-.5a.71.71 0 0 1 .52-.2h2.36c.2 0 .36.07.5.2a.67.67 0 0 1 .2.5v4.83h3.64c.2 0 .36.07.5.2a.67.67 0 0 1 .2.5v1.7c0 .19-.07.35-.2.49a.67.67 0 0 1-.5.2h-3.64v6.33c0 .8.14 1.41.4 1.86.3.45.8.67 1.5.67h2c.2 0 .36.07.5.2a.67.67 0 0 1 .2.5v1.8c0 .2-.06.37-.2.5a.68.68 0 0 1-.5.2h-2.36Zm10.31.3a8.6 8.6 0 0 1-3.93-.82 5.77 5.77 0 0 1-2.42-2.3 8.1 8.1 0 0 1-.93-3.47 24.17 24.17 0 0 1 0-2.56c.08-1.34.4-2.5.96-3.47a5.95 5.95 0 0 1 2.45-2.3 8.46 8.46 0 0 1 3.87-.82c1.52 0 2.8.28 3.85.82a5.72 5.72 0 0 1 2.45 2.3c.58.97.9 2.13.99 3.47a24.17 24.17 0 0 1 0 2.56 7.86 7.86 0 0 1-.97 3.47 5.56 5.56 0 0 1-2.41 2.3 8.42 8.42 0 0 1-3.9.82Zm0-2.89c1.03 0 1.83-.32 2.4-.96.55-.66.86-1.62.92-2.88a18.1 18.1 0 0 0 0-2.28 4.63 4.63 0 0 0-.93-2.85 2.97 2.97 0 0 0-2.39-1c-1.03 0-1.82.34-2.39 1a4.63 4.63 0 0 0-.93 2.85 17.4 17.4 0 0 0 0 2.28c.06 1.26.37 2.22.93 2.88.57.64 1.36.96 2.4.96Zm9.2 2.6a.68.68 0 0 1-.5-.2.67.67 0 0 1-.2-.5V33.8a.71.71 0 0 1 .2-.52.68.68 0 0 1 .5-.2h2.36c.2 0 .36.06.5.2.15.13.23.3.23.52V35a4.4 4.4 0 0 1 1.72-1.43c.72-.33 1.55-.5 2.48-.5h1.2c.2 0 .37.07.49.2a.67.67 0 0 1 .2.5v2.1c0 .2-.07.36-.2.5a.62.62 0 0 1-.5.2h-2.27c-.93 0-1.66.26-2.19.79-.5.52-.75 1.24-.75 2.15v8.02c0 .19-.07.36-.2.5a.71.71 0 0 1-.53.2h-2.54Zm15.74.29c-2.15 0-3.86-.63-5.13-1.87-1.26-1.24-1.94-3-2.04-5.3a8.8 8.8 0 0 1 .99-5.24 6.13 6.13 0 0 1 2.48-2.45 7.5 7.5 0 0 1 3.7-.88c1.58 0 2.9.33 3.96 1a6.08 6.08 0 0 1 2.42 2.7c.55 1.15.82 2.48.82 4v.6c0 .2-.07.37-.2.5a.7.7 0 0 1-.53.2h-9.67v.24c.02.68.14 1.31.38 1.9.25.56.6 1.01 1.07 1.36.49.35 1.06.53 1.72.53.55 0 1-.08 1.37-.24.37-.17.67-.36.9-.58a3.72 3.72 0 0 0 .5-.52c.17-.23.31-.37.4-.41.13-.06.29-.09.5-.09h2.5c.2 0 .36.06.48.18a.47.47 0 0 1 .17.43 2.4 2.4 0 0 1-.5 1.14c-.29.45-.71.88-1.28 1.31a7.5 7.5 0 0 1-2.12 1.08c-.84.27-1.8.4-2.89.4Zm-3.2-9.18h6.44v-.09c0-.76-.13-1.42-.38-1.98a3.14 3.14 0 0 0-1.11-1.34 3.04 3.04 0 0 0-1.75-.5c-.68 0-1.26.17-1.75.5-.48.33-.85.78-1.1 1.34a5.16 5.16 0 0 0-.35 1.98v.09Z"/></svg>