<svg xmlns="http://www.w3.org/2000/svg" fill="none" viewBox="0 0 704 340">
    <path
        fill="#231F20" fill-rule="evenodd"
          d="M90.33 290.5c11.67 12.96 2.03 40.68-21.55 61.92-22.04 19.84-48.45 27-61.33 17.27l82.83-79.25.05.05ZM4.2 366.49c-10.47-13.31-.73-40.26 22.31-61.01 21.45-19.33 47.06-26.62 60.29-18l-82.6 79Zm86.14-189.63c11.67 12.97 2.03 40.69-21.55 61.92-22.04 19.86-48.45 27-61.33 17.27l82.83-79.23.05.04Zm-86.14 76c-10.47-13.32-.73-40.26 22.31-61.01 21.45-19.33 47.06-26.62 60.29-18l-82.6 79ZM90.33 63.24c11.67 12.96 2.03 40.68-21.55 61.92-22.04 19.84-48.45 27-61.33 17.27l82.83-79.25.05.06ZM4.2 139.22c-10.47-13.3-.73-40.25 22.31-61 21.45-19.33 47.06-26.62 60.29-18l-82.6 79ZM90.33-50.4C102-37.44 92.36-9.7 68.78 11.52c-22.04 19.85-48.45 27-61.33 17.27l82.83-79.23.05.04ZM4.2 25.6C-6.28 12.28 3.46-14.66 26.5-35.42c21.45-19.32 47.06-26.61 60.29-18L4.19 25.6Zm617.53 321.64c-11.68 12.96-2.03 40.69 21.55 61.92 22.03 19.85 48.44 27 61.33 17.27l-82.84-79.24-.04.05Zm86.14 76c10.46-13.32.72-40.26-22.32-61.02-21.46-19.33-47.05-26.62-60.28-18l82.6 79.01ZM621.72 233.6c-11.68 12.96-2.03 40.68 21.55 61.92 22.03 19.85 48.44 27 61.33 17.27l-82.84-79.24-.04.05Zm86.14 76c10.46-13.32.72-40.27-22.32-61.02-21.46-19.33-47.05-26.62-60.28-18l82.6 79.01Zm-86.14-189.64c-11.68 12.97-2.03 40.69 21.55 61.93 22.03 19.85 48.44 27 61.33 17.26l-82.84-79.23-.04.04Zm86.14 76c10.46-13.3.72-40.25-22.32-61-21.46-19.34-47.05-26.63-60.28-18.01l82.6 79.01ZM621.72 6.35c-11.68 12.96-2.03 40.68 21.55 61.92 22.03 19.85 48.44 27 61.33 17.27L621.76 6.3l-.04.05Zm86.14 75.99c10.46-13.31.72-40.26-22.31-61.01-21.46-19.33-47.06-26.62-60.3-18l82.6 79ZM266.27 290.49c11.67 12.97 2.03 40.69-21.55 61.93-22.04 19.84-48.44 27-61.33 17.27l82.83-79.25.05.05Zm-86.14 76c-10.47-13.32-.73-40.26 22.31-61.02 21.46-19.32 47.06-26.61 60.3-18l-82.6 79.01Zm86.14-189.63c11.67 12.96 2.03 40.69-21.55 61.92-22.04 19.86-48.44 27-61.33 17.27l82.83-79.23.05.04Zm-86.14 76c-10.47-13.32-.73-40.26 22.31-61.01 21.46-19.33 47.06-26.62 60.3-18l-82.6 79Zm86.14-189.63c11.67 12.97 2.03 40.69-21.55 61.93-22.04 19.84-48.44 27-61.33 17.27l82.83-79.25.05.06Zm-86.14 76c-10.47-13.32-.73-40.26 22.31-61.01 21.45-19.33 47.06-26.62 60.29-18l-82.6 79ZM266.27-50.4c11.67 12.96 2.03 40.69-21.55 61.92-22.04 19.85-48.44 27-61.33 17.27l82.83-79.23.05.04Zm-86.14 76c-10.47-13.32-.73-40.26 22.31-61.02 21.46-19.32 47.06-26.62 60.3-18l-82.6 79.02Zm265.64 321.64c-11.67 12.96-2.02 40.69 21.56 61.92 22.04 19.85 48.44 27 61.33 17.27l-82.84-79.24-.05.05Zm86.15 75.99c10.46-13.31.72-40.26-22.31-61.01-21.47-19.33-47.06-26.62-60.3-18l82.6 79Zm-86.14-189.62c-11.68 12.96-2.03 40.68 21.55 61.92 22.04 19.85 48.44 27 61.33 17.27l-82.84-79.24-.05.05Zm86.14 76c10.46-13.32.72-40.27-22.31-61.02-21.47-19.33-47.06-26.62-60.3-18l82.6 79.01Zm-86.14-189.64c-11.68 12.97-2.03 40.69 21.55 61.93 22.04 19.85 48.44 27 61.33 17.26l-82.84-79.23-.05.04Zm86.14 76c10.46-13.31.72-40.25-22.31-61-21.47-19.34-47.06-26.63-60.3-18.01l82.6 79ZM445.78 6.35c-11.68 12.96-2.03 40.68 21.55 61.92 22.04 19.85 48.44 27 61.33 17.27L445.81 6.3l-.05.05Zm86.14 75.99c10.46-13.31.72-40.26-22.31-61.01C488.13 2 462.54-5.3 449.3 3.33l82.6 79ZM442.2 290.5c11.67 12.96 2.03 40.68-21.55 61.92-22.04 19.85-48.44 27-61.34 17.27l82.84-79.25.05.05Zm-86.14 75.98c-10.47-13.3-.73-40.25 22.31-61 21.46-19.33 47.06-26.62 60.28-18l-82.59 79Zm86.14-189.62c11.67 12.97 2.03 40.69-21.55 61.92-22.04 19.86-48.44 27-61.34 17.27l82.84-79.23.05.04Zm-86.14 76c-10.47-13.32-.73-40.26 22.31-61.01 21.46-19.33 47.06-26.62 60.28-18l-82.59 79Zm86.14-189.62c11.67 12.96 2.03 40.68-21.55 61.92-22.04 19.84-48.44 27-61.34 17.27l82.84-79.25.05.06Zm-86.14 75.98c-10.47-13.3-.73-40.25 22.31-61 21.46-19.33 47.06-26.62 60.28-18l-82.59 79ZM442.21-50.4c11.67 12.96 2.03 40.69-21.55 61.92-22.04 19.85-48.44 27-61.34 17.27l82.84-79.23.05.04Zm-86.14 76c-10.47-13.32-.73-40.26 22.31-61.02 21.46-19.32 47.06-26.61 60.28-18L356.07 25.6Zm-86.24 321.64c-11.67 12.96-2.02 40.69 21.56 61.92 22.04 19.85 48.44 27 61.33 17.27l-82.84-79.24-.05.05Zm86.14 76c10.47-13.32.74-40.26-22.3-61.02-21.47-19.33-47.06-26.62-60.3-18l82.6 79.01ZM269.83 233.6c-11.67 12.96-2.02 40.68 21.56 61.92 22.04 19.85 48.44 27 61.33 17.27l-82.84-79.24-.05.05Zm86.14 76c10.47-13.32.74-40.27-22.3-61.02-21.47-19.33-47.06-26.62-60.3-18l82.6 79.01Zm-86.14-189.64c-11.67 12.97-2.02 40.69 21.56 61.93 22.04 19.85 48.44 27 61.33 17.26l-82.84-79.23-.05.04Zm86.14 76c10.47-13.3.74-40.25-22.3-61-21.47-19.34-47.06-26.63-60.3-18.01l82.6 79.01ZM269.83 6.35c-11.67 12.96-2.02 40.68 21.56 61.92 22.04 19.85 48.44 27 61.33 17.27L269.88 6.3l-.05.05Zm86.14 75.99c10.47-13.31.74-40.26-22.3-61.01C312.2 2 286.6-5.3 273.36 3.33l82.6 79ZM618.15 290.5c11.67 12.96 2.03 40.68-21.56 61.92-22.03 19.85-48.43 27-61.32 17.27l82.83-79.25.05.05ZM532 366.48c-10.47-13.3-.73-40.25 22.31-61 21.46-19.33 47.06-26.62 60.28-18l-82.6 79Zm86.14-189.62c11.67 12.97 2.03 40.69-21.56 61.92-22.03 19.86-48.43 27-61.32 17.27l82.83-79.23.05.04Zm-86.14 76c-10.47-13.32-.73-40.26 22.31-61.01 21.46-19.33 47.06-26.62 60.28-18l-82.6 79Zm86.14-189.62c11.67 12.96 2.03 40.68-21.56 61.92-22.03 19.84-48.43 27-61.32 17.27l82.83-79.25.05.06ZM532 139.22c-10.47-13.3-.73-40.25 22.31-61 21.46-19.33 47.06-26.62 60.28-18l-82.6 79ZM618.15-50.4c11.67 12.96 2.03 40.69-21.56 61.92-22.03 19.85-48.43 27-61.32 17.27l82.83-79.23.05.04ZM532 25.6c-10.47-13.32-.73-40.26 22.31-61.02 21.46-19.32 47.06-26.62 60.28-18L532 25.6ZM93.89 347.24c-11.67 12.96-2.02 40.69 21.55 61.92 22.04 19.85 48.45 27 61.33 17.27L93.94 347.2l-.05.05Zm86.14 76c10.47-13.32.74-40.26-22.3-61.02-21.46-19.33-47.06-26.62-60.29-18l82.6 79.01ZM93.9 233.6c-11.67 12.96-2.02 40.68 21.55 61.92 22.04 19.85 48.45 27 61.33 17.27l-82.83-79.24-.05.05Zm86.14 76c10.47-13.32.74-40.27-22.3-61.02-21.46-19.33-47.06-26.62-60.29-18l82.6 79.01ZM93.9 119.96c-11.67 12.97-2.02 40.69 21.55 61.93 22.04 19.85 48.45 27 61.33 17.26l-82.83-79.23-.05.04Zm86.14 76c10.47-13.3.74-40.25-22.3-61-21.46-19.34-47.06-26.63-60.29-18.01l82.6 79.01ZM93.9 6.35c-11.67 12.96-2.02 40.68 21.55 61.92 22.04 19.85 48.45 27 61.33 17.27L93.94 6.3l-.05.05Zm86.14 75.99c10.47-13.31.74-40.26-22.3-61.01C136.26 2 110.66-5.3 97.44 3.33l82.6 79ZM794.1 290.5c11.67 12.96 2.02 40.68-21.56 61.92-22.03 19.85-48.43 27-61.33 17.27l82.84-79.25.05.05Zm-86.15 75.98c-10.46-13.3-.72-40.25 22.31-61 21.47-19.33 47.06-26.62 60.3-18l-82.6 79Zm86.15-189.62c11.67 12.97 2.02 40.69-21.56 61.92-22.03 19.86-48.43 27-61.33 17.27l82.84-79.23.05.04Zm-86.15 76c-10.46-13.32-.72-40.26 22.31-61.01 21.47-19.33 47.06-26.62 60.3-18l-82.6 79ZM794.1 63.24c11.67 12.96 2.02 40.68-21.56 61.92-22.03 19.84-48.43 27-61.33 17.27l82.84-79.25.05.06Zm-86.15 75.98c-10.46-13.3-.72-40.25 22.31-61 21.47-19.33 47.06-26.62 60.3-18l-82.6 79ZM794.1-50.4c11.67 12.96 2.02 40.69-21.56 61.92-22.03 19.85-48.43 27-61.33 17.27l82.84-79.23.05.04Zm-86.15 76c-10.46-13.32-.72-40.26 22.31-61.02 21.47-19.32 47.06-26.62 60.3-18l-82.6 79.02ZM-82.04 347.24c-11.68 12.96-2.03 40.69 21.55 61.92 22.04 19.85 48.44 27 61.33 17.27L-82 347.2l-.05.05Zm86.14 76c10.46-13.32.73-40.26-22.31-61.02-21.46-19.33-47.06-26.62-60.29-18l82.6 79.01ZM-82.04 233.6c-11.68 12.96-2.03 40.68 21.55 61.92 22.04 19.85 48.44 27 61.33 17.27L-82 233.56l-.05.05Zm86.14 76c10.46-13.32.73-40.27-22.31-61.02-21.46-19.33-47.06-26.62-60.29-18L4.1 309.6Zm-86.14-189.64c-11.68 12.97-2.03 40.69 21.55 61.93 22.04 19.85 48.44 27 61.33 17.26L-82 119.93l-.05.04Zm86.14 76c10.46-13.3.73-40.25-22.31-61-21.46-19.34-47.06-26.63-60.29-18.01l82.6 79.01ZM-82.04 6.35C-93.72 19.3-84.07 47.03-60.5 68.27c22.04 19.85 48.45 27 61.33 17.27L-82 6.3l-.04.05ZM4.09 82.34c10.47-13.31.74-40.26-22.3-61.01C-39.68 2-65.28-5.3-78.5 3.33"
          clip-rule="evenodd"/>
</svg>