<svg xmlns="http://www.w3.org/2000/svg" width="290" height="64" fill="none"><path fill="#FD3" d="M87.4 37.25c4.23-2.37 7.47-4.17 7.75-4.31.88-.48 1.8-1.75 0-2.74-.59-.3-3.71-2.06-7.76-4.31l-5.56 5.7 5.56 5.66Z"/><path fill="#F66" d="M81.83 31.58 64.05 49.82c.41.06.89-.06 1.44-.37l21.9-12.2-5.56-5.67Z"/><path fill="#7BFF7B" d="m81.83 31.58 5.56-5.7S66.74 14.43 65.5 13.75c-.47-.28-1-.37-1.47-.28l17.8 18.12Z"/><path fill="#6ED8FF" d="m81.83 31.58-17.8-18.12c-.73.17-1.34.81-1.34 2.14v32.08c0 1.21.47 2.08 1.36 2.17l17.78-18.27Z"/><path fill="#fff" d="M110.02 22.33c-.82 0-1.53-.14-2.1-.43a3.1 3.1 0 0 1-1.31-1.24c-.3-.54-.48-1.19-.51-1.94a53.46 53.46 0 0 1 0-2.38c.03-.75.2-1.4.5-1.94a3.08 3.08 0 0 1 1.33-1.24c.58-.29 1.27-.44 2.1-.44.6 0 1.14.08 1.62.24.48.16.89.39 1.23.67a2.8 2.8 0 0 1 1.08 2.19.22.22 0 0 1-.08.2.27.27 0 0 1-.2.08h-1.27a.4.4 0 0 1-.24-.07.46.46 0 0 1-.13-.25c-.15-.59-.39-.99-.74-1.2a2.42 2.42 0 0 0-1.3-.32c-.59 0-1.06.17-1.42.5-.35.34-.55.88-.57 1.65-.03.73-.03 1.47 0 2.24.02.76.22 1.32.57 1.65.36.33.83.5 1.43.5.52 0 .95-.11 1.3-.32.34-.23.59-.63.73-1.2.02-.13.07-.21.13-.26a.4.4 0 0 1 .24-.06h1.27c.08 0 .14.02.2.08.06.05.09.12.08.2-.01.43-.1.84-.3 1.2a3.1 3.1 0 0 1-.78 1 3.84 3.84 0 0 1-1.23.65c-.48.16-1.02.24-1.63.24Zm5.68-.13a.31.31 0 0 1-.23-.1.31.31 0 0 1-.09-.22v-6.3a.31.31 0 0 1 .1-.23.31.31 0 0 1 .22-.1h1.1a.3.3 0 0 1 .22.1.31.31 0 0 1 .1.23v2.39h.96l1.62-2.5a.4.4 0 0 1 .38-.21h1.18c.1 0 .17.02.22.06.05.05.08.1.08.18a.21.21 0 0 1-.03.1.33.33 0 0 1-.04.07l-1.92 2.92 2.2 3.2a.26.26 0 0 1 .07.17.22.22 0 0 1-.08.17.3.3 0 0 1-.2.07h-1.35a.45.45 0 0 1-.23-.06.57.57 0 0 1-.14-.14l-1.76-2.62h-.96v2.5a.31.31 0 0 1-.1.22.3.3 0 0 1-.23.1h-1.09Zm9.32.13a2.9 2.9 0 0 1-1.26-.27 2.45 2.45 0 0 1-.89-.73 1.8 1.8 0 0 1-.32-1.04c0-.62.25-1.12.75-1.48.5-.38 1.17-.62 2-.75l1.83-.27v-.28c0-.37-.1-.66-.28-.86-.19-.2-.51-.31-.96-.31-.32 0-.59.07-.8.2a1.16 1.16 0 0 0-.43.5.34.34 0 0 1-.3.18h-1.06c-.1 0-.18-.03-.23-.08a.32.32 0 0 1-.07-.21c.01-.15.07-.32.18-.52.1-.2.27-.4.5-.6.24-.19.53-.35.9-.48.36-.14.8-.2 1.32-.2.56 0 1.03.07 1.41.2.4.14.7.33.94.56.23.23.4.5.5.81.11.31.17.64.17.99v4.19a.31.31 0 0 1-.1.22.31.31 0 0 1-.22.1h-1.09a.32.32 0 0 1-.24-.1.33.33 0 0 1-.08-.22v-.52c-.11.17-.27.33-.46.48a2.73 2.73 0 0 1-.72.36 3.24 3.24 0 0 1-1 .13Zm.45-1.27c.31 0 .6-.06.84-.2a1.38 1.38 0 0 0 .6-.61c.16-.29.23-.64.23-1.07v-.28l-1.33.21c-.53.08-.92.21-1.18.4-.26.17-.39.39-.39.65 0 .2.06.36.18.5s.28.24.46.31c.2.06.39.1.6.1Zm9.55 1.14a.3.3 0 0 1-.23-.1.31.31 0 0 1-.1-.22V19.6a2.18 2.18 0 0 1-.82.44 4.1 4.1 0 0 1-1.1.13 2.8 2.8 0 0 1-1.88-.57c-.43-.4-.65-1.02-.65-1.88v-2.15c0-.09.03-.17.08-.23a.32.32 0 0 1 .24-.09h1.15a.3.3 0 0 1 .22.1.3.3 0 0 1 .1.22v2.06c0 .35.1.6.28.77.2.15.5.23.93.23.44 0 .79-.06 1.06-.18a.62.62 0 0 0 .4-.61v-2.27a.31.31 0 0 1 .09-.23.3.3 0 0 1 .23-.09h1.2a.3.3 0 0 1 .22.1.3.3 0 0 1 .1.22v6.3a.3.3 0 0 1-.1.23.3.3 0 0 1-.22.09h-1.2Zm5.34.13a2.9 2.9 0 0 1-1.26-.27 2.45 2.45 0 0 1-.9-.73 1.8 1.8 0 0 1-.31-1.04c0-.62.25-1.12.74-1.48.51-.38 1.18-.62 2-.75l1.83-.27v-.28c0-.37-.09-.66-.28-.86-.18-.2-.5-.31-.96-.31-.32 0-.58.07-.78.2a1.16 1.16 0 0 0-.44.5.34.34 0 0 1-.31.18h-1.06c-.1 0-.17-.03-.22-.08a.32.32 0 0 1-.07-.21c.01-.15.07-.32.17-.52.11-.2.28-.4.51-.6.23-.19.53-.35.9-.48.36-.14.8-.2 1.32-.2.56 0 1.03.07 1.41.2.4.14.7.33.93.56.24.23.4.5.51.81.1.31.16.64.16.99v4.19a.31.31 0 0 1-.1.22.31.31 0 0 1-.22.1h-1.08a.32.32 0 0 1-.24-.1.33.33 0 0 1-.08-.22v-.52c-.12.17-.27.33-.47.48a2.73 2.73 0 0 1-.72.36 3.24 3.24 0 0 1-.98.13Zm.45-1.27c.31 0 .6-.06.84-.2.26-.13.46-.33.6-.61.15-.29.23-.64.23-1.07v-.28l-1.34.21c-.52.08-.91.21-1.17.4-.26.17-.39.39-.39.65 0 .2.06.36.17.5.13.14.29.24.47.31.19.06.39.1.59.1Zm7.27 1.14a.33.33 0 0 1-.24-.1.34.34 0 0 1-.08-.22v-5.2h-2.17a.32.32 0 0 1-.24-.1.34.34 0 0 1-.08-.23v-.77c0-.09.03-.17.08-.23a.32.32 0 0 1 .24-.1h6.06c.1 0 .18.04.24.1a.3.3 0 0 1 .1.23v.77a.3.3 0 0 1-.1.23.32.32 0 0 1-.24.1h-2.16v5.2a.31.31 0 0 1-.1.22.3.3 0 0 1-.22.1h-1.09Zm5.28 0a.3.3 0 0 1-.23-.1.31.31 0 0 1-.1-.22v-6.3a.31.31 0 0 1 .1-.23.3.3 0 0 1 .23-.1h1.12a.3.3 0 0 1 .23.1.3.3 0 0 1 .1.23v1.88h1.37c.9 0 1.58.21 2.04.64.45.43.68 1.01.68 1.76 0 .78-.25 1.36-.74 1.75-.49.4-1.18.59-2.1.59h-2.7Zm1.41-1.27h1.26c.43 0 .75-.08.96-.24.21-.16.32-.44.32-.83 0-.38-.1-.66-.3-.85-.2-.19-.53-.28-.98-.28h-1.26v2.2Zm8.7 1.27a.3.3 0 0 1-.21-.1.3.3 0 0 1-.1-.21v-6.31a.3.3 0 0 1 .1-.23.3.3 0 0 1 .22-.09h1.11c.1 0 .18.03.23.1a.31.31 0 0 1 .1.22v5.27l-.47-.33 3.67-5.05a.57.57 0 0 1 .14-.14.33.33 0 0 1 .21-.07h1.02c.08 0 .15.03.21.1.06.05.1.11.1.2v6.32a.3.3 0 0 1-.1.23.3.3 0 0 1-.22.09h-1.11a.32.32 0 0 1-.24-.1.34.34 0 0 1-.08-.22v-5.03l.5.06-3.7 5.07a.56.56 0 0 1-.15.15.33.33 0 0 1-.22.07h-1Zm10.68.13c-.57 0-1.05-.07-1.44-.2-.39-.13-.7-.3-.92-.5a2.14 2.14 0 0 1-.5-.65 2.17 2.17 0 0 1-.17-.62c0-.08.02-.15.08-.2a.26.26 0 0 1 .17-.06h1.1c.08 0 .15.02.2.06a.4.4 0 0 1 .13.17.89.89 0 0 0 .5.56c.24.1.55.16.91.16.25 0 .47-.03.67-.1.2-.06.35-.17.45-.3a.84.84 0 0 0 .16-.52c0-.3-.08-.52-.25-.67-.17-.16-.44-.24-.83-.24h-.73a.29.29 0 0 1-.21-.08.29.29 0 0 1-.08-.21v-.56c0-.08.02-.15.08-.2a.27.27 0 0 1 .2-.1h.69c.32 0 .56-.05.72-.17.16-.12.24-.31.24-.57a.82.82 0 0 0-.12-.43.8.8 0 0 0-.36-.35c-.17-.09-.4-.13-.7-.13-.42 0-.72.07-.9.2-.18.13-.3.33-.39.6a.39.39 0 0 1-.13.17c-.05.04-.12.06-.22.06h-1.05a.28.28 0 0 1-.19-.07.25.25 0 0 1-.06-.19c.01-.24.08-.48.18-.72.12-.25.3-.47.52-.68a2.58 2.58 0 0 1 .91-.48c.37-.12.81-.18 1.34-.18.7 0 1.27.1 1.7.29.4.2.7.44.88.75.2.29.28.6.28.92 0 .33-.06.61-.18.85a1.3 1.3 0 0 1-.66.59c.4.15.68.38.83.7.15.3.23.65.24 1.02 0 .44-.13.82-.39 1.13-.25.3-.61.54-1.08.71-.46.16-1 .24-1.62.24ZM108.26 47.6a.65.65 0 0 1-.48-.2.65.65 0 0 1-.2-.48v-18.4a.69.69 0 0 1 .2-.52.65.65 0 0 1 .48-.2h7.58c1.47 0 2.75.24 3.85.71a5.38 5.38 0 0 1 2.54 2.1c.6.92.9 2.08.9 3.47a6.3 6.3 0 0 1-.9 3.51c-.6.9-1.45 1.58-2.54 2.04a10 10 0 0 1-3.85.68h-4.21v6.61a.65.65 0 0 1-.2.48.6.6 0 0 1-.48.2h-2.69Zm3.31-10.43h4.13c1.1 0 1.93-.26 2.52-.77.58-.52.88-1.3.88-2.32 0-.94-.28-1.7-.82-2.26-.55-.58-1.41-.88-2.58-.88h-4.13v6.23Zm13.05 10.43a.65.65 0 0 1-.49-.2.65.65 0 0 1-.2-.48V28.2c0-.19.07-.35.2-.48a.66.66 0 0 1 .49-.2h2.34c.19 0 .35.07.48.2a.66.66 0 0 1 .2.48v18.72a.65.65 0 0 1-.2.48.66.66 0 0 1-.48.2h-2.34Zm9.06.28a6.1 6.1 0 0 1-2.66-.56c-.79-.4-1.42-.92-1.9-1.56a3.81 3.81 0 0 1-.67-2.2c0-1.32.53-2.37 1.58-3.14a9.43 9.43 0 0 1 4.25-1.59l3.87-.56v-.6c0-.79-.2-1.4-.6-1.83-.39-.44-1.07-.65-2.03-.65a3 3 0 0 0-1.67.42 2.46 2.46 0 0 0-.93 1.07.72.72 0 0 1-.65.37h-2.24c-.2 0-.36-.05-.48-.17a.68.68 0 0 1-.14-.45c.02-.3.14-.67.37-1.1.23-.44.58-.85 1.07-1.25a6.2 6.2 0 0 1 1.9-1.04c.77-.29 1.7-.43 2.8-.43 1.19 0 2.19.15 3 .46a4.43 4.43 0 0 1 3.05 2.88c.23.66.34 1.36.34 2.1v8.87a.65.65 0 0 1-.2.48.65.65 0 0 1-.48.2h-2.29a.69.69 0 0 1-.5-.2.71.71 0 0 1-.18-.48v-1.1a4.55 4.55 0 0 1-.99 1.02 5.76 5.76 0 0 1-3.62 1.04Zm.96-2.68c.66 0 1.26-.14 1.79-.43.54-.28.97-.71 1.27-1.3.32-.6.48-1.35.48-2.26v-.6l-2.83.46a6.1 6.1 0 0 0-2.49.82c-.54.38-.82.84-.82 1.39 0 .41.13.77.37 1.07.26.28.6.5.99.65.4.13.81.2 1.24.2Zm11.22 7.77a.54.54 0 0 1-.4-.17.54.54 0 0 1-.16-.4v-.22c.01-.05.05-.13.1-.22l2.21-5.24-5.43-12.8a1.3 1.3 0 0 1-.1-.4.69.69 0 0 1 .19-.43.54.54 0 0 1 .42-.2h2.3c.22 0 .39.06.5.18.12.1.2.23.26.36l3.76 9.25 3.87-9.25a.87.87 0 0 1 .26-.36c.11-.12.28-.17.5-.17h2.27c.15 0 .28.05.4.17a.5.5 0 0 1 .2.4c0 .1-.04.25-.12.44l-8 18.53c-.08.15-.17.27-.29.36-.1.12-.28.18-.5.18h-2.24Zm22.55-5.09c-1.75 0-3.22-.25-4.41-.76a6.73 6.73 0 0 1-2.69-2.04 4.89 4.89 0 0 1-.96-2.65c0-.17.06-.31.17-.43a.58.58 0 0 1 .42-.17h2.52c.25 0 .43.06.54.17.13.1.24.22.34.37.11.36.33.72.65 1.07.32.34.75.63 1.3.85.57.23 1.27.34 2.12.34 1.36 0 2.37-.22 3.03-.68a2.1 2.1 0 0 0 1.01-1.84c0-.54-.17-.98-.53-1.3a4.67 4.67 0 0 0-1.67-.9 25.5 25.5 0 0 0-2.94-.88c-1.42-.34-2.6-.74-3.57-1.21a5.62 5.62 0 0 1-2.14-1.84 5.1 5.1 0 0 1-.71-2.8c0-1.1.29-2.07.87-2.91a6.09 6.09 0 0 1 2.55-2.01 9.77 9.77 0 0 1 3.96-.74c1.22 0 2.3.17 3.25.51.94.32 1.73.76 2.35 1.3.62.53 1.1 1.1 1.41 1.73.34.6.52 1.2.54 1.78 0 .15-.06.3-.17.42-.1.12-.24.17-.42.17h-2.63c-.15 0-.3-.04-.46-.11a.83.83 0 0 1-.36-.42 2.35 2.35 0 0 0-1.1-1.5 4.25 4.25 0 0 0-2.41-.62 4.7 4.7 0 0 0-2.46.56 1.9 1.9 0 0 0-.93 1.75 2 2 0 0 0 .45 1.33c.32.34.82.64 1.5.9.7.27 1.6.56 2.74.86 1.6.36 2.91.77 3.93 1.24a5.09 5.09 0 0 1 2.24 1.81c.47.72.7 1.63.7 2.74a5.1 5.1 0 0 1-1.02 3.2 6.28 6.28 0 0 1-2.8 2c-1.2.48-2.6.71-4.21.71Zm15.6-.28c-1.13 0-2.08-.2-2.86-.6a3.79 3.79 0 0 1-1.72-1.75 6.81 6.81 0 0 1-.57-2.94V35.9h-2.23a.66.66 0 0 1-.48-.2.66.66 0 0 1-.2-.48v-1.64c0-.18.07-.35.2-.48a.65.65 0 0 1 .48-.2h2.23V28.2c0-.19.06-.35.17-.48a.69.69 0 0 1 .51-.2h2.3c.18 0 .34.07.47.2a.66.66 0 0 1 .2.48v4.7h3.54c.18 0 .35.06.48.2a.65.65 0 0 1 .2.47v1.64a.66.66 0 0 1-.2.48.66.66 0 0 1-.48.2h-3.54v6.14c0 .77.13 1.38.4 1.8.28.44.76.66 1.44.66h1.95c.19 0 .35.07.48.2a.65.65 0 0 1 .2.48v1.75a.65.65 0 0 1-.2.48.65.65 0 0 1-.48.2h-2.29Zm10 .28c-1.5 0-2.78-.26-3.81-.79a5.6 5.6 0 0 1-2.35-2.23 7.86 7.86 0 0 1-.9-3.37 22.77 22.77 0 0 1 0-2.49c.07-1.3.38-2.42.93-3.36a5.78 5.78 0 0 1 2.37-2.24 8.2 8.2 0 0 1 3.76-.79c1.47 0 2.72.27 3.74.8a5.56 5.56 0 0 1 2.37 2.23c.57.94.89 2.06.96 3.36a22.93 22.93 0 0 1 0 2.5 7.63 7.63 0 0 1-.93 3.36 5.39 5.39 0 0 1-2.35 2.23c-1.02.53-2.28.8-3.79.8Zm0-2.8c1 0 1.78-.3 2.32-.93.55-.64.85-1.57.9-2.8a17.15 17.15 0 0 0 0-2.2 4.5 4.5 0 0 0-.9-2.78 2.88 2.88 0 0 0-2.32-.96c-1 0-1.77.32-2.32.96a4.5 4.5 0 0 0-.9 2.78 17.18 17.18 0 0 0 0 2.2c.06 1.23.36 2.16.9 2.8.55.62 1.32.93 2.32.93Zm8.93 2.52a.65.65 0 0 1-.48-.2.65.65 0 0 1-.2-.48V33.6c0-.2.07-.37.2-.5a.65.65 0 0 1 .48-.2h2.3c.18 0 .34.06.48.2a.65.65 0 0 1 .22.5v1.16a4.26 4.26 0 0 1 1.67-1.38 5.7 5.7 0 0 1 2.4-.48h1.16c.21 0 .37.06.48.2a.65.65 0 0 1 .2.47v2.04a.65.65 0 0 1-.2.48c-.1.13-.27.2-.48.2h-2.2c-.9 0-1.61.25-2.12.76a2.9 2.9 0 0 0-.74 2.1v7.77a.65.65 0 0 1-.2.48.69.69 0 0 1-.5.2h-2.47Zm15.28.28c-2.1 0-3.75-.6-4.98-1.8-1.22-1.21-1.88-2.93-1.98-5.15a8.54 8.54 0 0 1 .96-5.09 5.95 5.95 0 0 1 2.4-2.38 7.28 7.28 0 0 1 3.6-.85c1.53 0 2.8.32 3.85.96a5.9 5.9 0 0 1 2.34 2.63c.53 1.12.8 2.4.8 3.88v.6a.66.66 0 0 1-.2.47.69.69 0 0 1-.51.2h-9.4v.23c.03.66.15 1.27.38 1.84.24.54.59.99 1.04 1.32.47.35 1.03.52 1.67.52.53 0 .97-.08 1.33-.23a3.51 3.51 0 0 0 1.36-1.08c.17-.22.3-.35.4-.4.1-.05.27-.08.47-.08h2.44a.6.6 0 0 1 .45.17.46.46 0 0 1 .17.43c-.02.3-.18.67-.48 1.1-.28.43-.7.86-1.25 1.27-.54.42-1.23.77-2.06 1.05-.81.26-1.74.4-2.8.4Zm-3.11-8.9h6.25v-.09c0-.73-.12-1.38-.37-1.92a3.03 3.03 0 0 0-1.07-1.3 2.94 2.94 0 0 0-1.7-.48c-.66 0-1.23.16-1.7.48-.47.32-.83.75-1.07 1.3a5.01 5.01 0 0 0-.34 1.92v.09Z"/></svg>