<?xml version="1.0" encoding="UTF-8"?> <svg xmlns="http://www.w3.org/2000/svg" width="290" height="64" viewBox="0 0 290 64" fill="none"><rect x="0.551816" y="0.551816" width="288.896" height="62.1713" rx="9.74875" stroke="white" stroke-opacity="0.2" stroke-width="1.10363"></rect><path d="M87.3938 37.2487C91.6303 34.8809 94.87 33.0768 95.1469 32.9359C96.0329 32.4566 96.9467 31.1882 95.1469 30.2016C94.5654 29.8915 91.4364 28.1438 87.3938 25.8887L81.8281 31.5828L87.3938 37.2487Z" fill="#FFDD33"></path><path d="M81.8276 31.583L64.0508 49.8211C64.4661 49.8775 64.9369 49.7647 65.4906 49.4547C66.6536 48.8063 79.0032 41.9283 87.3932 37.2489L81.8276 31.583Z" fill="#FF6666"></path><path d="M81.8279 31.5824L87.3935 25.8883C87.3935 25.8883 66.737 14.4155 65.491 13.739C65.0203 13.4571 64.4942 13.3725 64.0234 13.4571L81.8279 31.5824Z" fill="#7BFF7B"></path><path d="M81.8269 31.5824L64.0225 13.457C63.3025 13.6262 62.6934 14.2745 62.6934 15.5994C62.6934 17.7135 62.6934 45.9023 62.6934 47.6782C62.6934 48.8903 63.1641 49.7641 64.0502 49.8487L81.8269 31.5824Z" fill="#6ED8FF"></path><path d="M110.022 22.3307C109.195 22.3307 108.492 22.1884 107.914 21.9037C107.345 21.6102 106.909 21.1965 106.606 20.6628C106.304 20.1202 106.135 19.4708 106.099 18.7147C106.091 18.3499 106.086 17.9585 106.086 17.5404C106.086 17.1223 106.091 16.722 106.099 16.3395C106.135 15.5923 106.304 14.9474 106.606 14.4048C106.918 13.8621 107.358 13.4485 107.927 13.1638C108.506 12.8703 109.204 12.7235 110.022 12.7235C110.627 12.7235 111.17 12.8036 111.65 12.9637C112.131 13.1238 112.54 13.3462 112.878 13.6308C113.216 13.9066 113.478 14.2313 113.665 14.6049C113.852 14.9785 113.95 15.3833 113.959 15.8191C113.968 15.8992 113.941 15.9659 113.879 16.0193C113.825 16.0727 113.759 16.0994 113.678 16.0994H112.411C112.313 16.0994 112.233 16.0771 112.171 16.0326C112.108 15.9793 112.064 15.8948 112.037 15.7791C111.895 15.192 111.65 14.7917 111.303 14.5782C110.956 14.3647 110.525 14.258 110.009 14.258C109.413 14.258 108.937 14.427 108.581 14.765C108.225 15.0942 108.034 15.6412 108.008 16.4063C107.981 17.1357 107.981 17.8829 108.008 18.6479C108.034 19.413 108.225 19.9645 108.581 20.3025C108.937 20.6316 109.413 20.7962 110.009 20.7962C110.525 20.7962 110.956 20.6895 111.303 20.476C111.65 20.2536 111.895 19.8533 112.037 19.2751C112.064 19.1505 112.108 19.066 112.171 19.0216C112.233 18.9771 112.313 18.9548 112.411 18.9548H113.678C113.759 18.9548 113.825 18.9815 113.879 19.0349C113.941 19.0883 113.968 19.155 113.959 19.235C113.95 19.6709 113.852 20.0757 113.665 20.4493C113.478 20.8229 113.216 21.152 112.878 21.4367C112.54 21.7125 112.131 21.9304 111.65 22.0905C111.17 22.2506 110.627 22.3307 110.022 22.3307ZM115.701 22.1973C115.612 22.1973 115.537 22.1661 115.474 22.1039C115.412 22.0416 115.381 21.966 115.381 21.877V15.579C115.381 15.49 115.412 15.4144 115.474 15.3521C115.537 15.2899 115.612 15.2587 115.701 15.2587H116.795C116.884 15.2587 116.96 15.2899 117.022 15.3521C117.084 15.4144 117.116 15.49 117.116 15.579V17.9674H118.076L119.704 15.4722C119.74 15.41 119.784 15.361 119.838 15.3254C119.9 15.281 119.98 15.2587 120.078 15.2587H121.265C121.354 15.2587 121.426 15.281 121.479 15.3254C121.532 15.3699 121.559 15.4277 121.559 15.4989C121.559 15.5256 121.55 15.5567 121.532 15.5923C121.523 15.619 121.51 15.6457 121.492 15.6724L119.571 18.5946L121.772 21.7836C121.817 21.837 121.839 21.8948 121.839 21.9571C121.839 22.0282 121.812 22.0861 121.759 22.1305C121.706 22.175 121.639 22.1973 121.559 22.1973H120.211C120.122 22.1973 120.047 22.1795 119.984 22.1439C119.931 22.1083 119.882 22.0594 119.838 21.9971L118.076 19.3818H117.116V21.877C117.116 21.966 117.084 22.0416 117.022 22.1039C116.96 22.1661 116.884 22.1973 116.795 22.1973H115.701ZM125.019 22.3307C124.556 22.3307 124.138 22.2417 123.764 22.0638C123.391 21.877 123.093 21.6324 122.87 21.3299C122.657 21.0186 122.55 20.6717 122.55 20.2892C122.55 19.6665 122.799 19.1728 123.297 18.8081C123.804 18.4344 124.472 18.1854 125.299 18.0608L127.127 17.794V17.5138C127.127 17.1401 127.034 16.851 126.847 16.6464C126.66 16.4418 126.34 16.3395 125.886 16.3395C125.566 16.3395 125.303 16.4063 125.099 16.5397C124.903 16.6642 124.756 16.8332 124.658 17.0467C124.587 17.1624 124.485 17.2202 124.352 17.2202H123.297C123.2 17.2202 123.124 17.1935 123.071 17.1401C123.026 17.0868 123.004 17.0156 123.004 16.9266C123.013 16.7843 123.071 16.6109 123.177 16.4063C123.284 16.2017 123.453 16.006 123.684 15.8191C123.916 15.6234 124.214 15.4589 124.578 15.3254C124.943 15.192 125.383 15.1253 125.899 15.1253C126.46 15.1253 126.931 15.1965 127.314 15.3388C127.705 15.4722 128.017 15.6546 128.248 15.8859C128.479 16.1171 128.648 16.3885 128.755 16.6998C128.862 17.0112 128.915 17.3403 128.915 17.6872V21.877C128.915 21.966 128.884 22.0416 128.822 22.1039C128.759 22.1661 128.684 22.1973 128.595 22.1973H127.514C127.416 22.1973 127.336 22.1661 127.274 22.1039C127.22 22.0416 127.194 21.966 127.194 21.877V21.3566C127.078 21.5257 126.922 21.6858 126.727 21.837C126.531 21.9793 126.291 22.0994 126.006 22.1973C125.73 22.2862 125.401 22.3307 125.019 22.3307ZM125.472 21.0631C125.784 21.0631 126.064 20.9964 126.313 20.8629C126.571 20.7295 126.771 20.5249 126.913 20.2491C127.065 19.9645 127.14 19.6087 127.14 19.1817V18.9015L125.806 19.115C125.281 19.195 124.89 19.324 124.632 19.5019C124.374 19.6798 124.245 19.8978 124.245 20.1557C124.245 20.3514 124.303 20.5205 124.418 20.6628C124.543 20.7962 124.699 20.8985 124.885 20.9697C125.072 21.0319 125.268 21.0631 125.472 21.0631ZM135.017 22.1973C134.928 22.1973 134.852 22.1661 134.79 22.1039C134.728 22.0416 134.697 21.966 134.697 21.877V19.6087C134.474 19.8044 134.198 19.9511 133.869 20.049C133.549 20.1379 133.184 20.1824 132.775 20.1824C131.966 20.1824 131.338 19.9912 130.894 19.6087C130.458 19.2173 130.24 18.5901 130.24 17.7272V15.579C130.24 15.49 130.267 15.4144 130.32 15.3521C130.382 15.2899 130.462 15.2587 130.56 15.2587H131.708C131.797 15.2587 131.872 15.2899 131.934 15.3521C131.997 15.4144 132.028 15.49 132.028 15.579V17.6338C132.028 17.9897 132.121 18.2476 132.308 18.4078C132.504 18.559 132.815 18.6346 133.242 18.6346C133.678 18.6346 134.029 18.5768 134.296 18.4611C134.563 18.3455 134.697 18.1409 134.697 17.8473V15.579C134.697 15.49 134.728 15.4144 134.79 15.3521C134.852 15.2899 134.928 15.2587 135.017 15.2587H136.218C136.307 15.2587 136.382 15.2899 136.444 15.3521C136.507 15.4144 136.538 15.49 136.538 15.579V21.877C136.538 21.966 136.507 22.0416 136.444 22.1039C136.382 22.1661 136.307 22.1973 136.218 22.1973H135.017ZM140.356 22.3307C139.893 22.3307 139.475 22.2417 139.101 22.0638C138.728 21.877 138.43 21.6324 138.207 21.3299C137.994 21.0186 137.887 20.6717 137.887 20.2892C137.887 19.6665 138.136 19.1728 138.634 18.8081C139.142 18.4344 139.809 18.1854 140.636 18.0608L142.464 17.794V17.5138C142.464 17.1401 142.371 16.851 142.184 16.6464C141.997 16.4418 141.677 16.3395 141.223 16.3395C140.903 16.3395 140.64 16.4063 140.436 16.5397C140.24 16.6642 140.093 16.8332 139.995 17.0467C139.924 17.1624 139.822 17.2202 139.689 17.2202H138.634C138.537 17.2202 138.461 17.1935 138.408 17.1401C138.363 17.0868 138.341 17.0156 138.341 16.9266C138.35 16.7843 138.408 16.6109 138.514 16.4063C138.621 16.2017 138.79 16.006 139.021 15.8191C139.253 15.6234 139.551 15.4589 139.915 15.3254C140.28 15.192 140.72 15.1253 141.236 15.1253C141.797 15.1253 142.268 15.1965 142.651 15.3388C143.042 15.4722 143.354 15.6546 143.585 15.8859C143.816 16.1171 143.985 16.3885 144.092 16.6998C144.199 17.0112 144.252 17.3403 144.252 17.6872V21.877C144.252 21.966 144.221 22.0416 144.159 22.1039C144.096 22.1661 144.021 22.1973 143.932 22.1973H142.851C142.753 22.1973 142.673 22.1661 142.611 22.1039C142.557 22.0416 142.531 21.966 142.531 21.877V21.3566C142.415 21.5257 142.259 21.6858 142.064 21.837C141.868 21.9793 141.628 22.0994 141.343 22.1973C141.067 22.2862 140.738 22.3307 140.356 22.3307ZM140.809 21.0631C141.121 21.0631 141.401 20.9964 141.65 20.8629C141.908 20.7295 142.108 20.5249 142.251 20.2491C142.402 19.9645 142.477 19.6087 142.477 19.1817V18.9015L141.143 19.115C140.618 19.195 140.227 19.324 139.969 19.5019C139.711 19.6798 139.582 19.8978 139.582 20.1557C139.582 20.3514 139.64 20.5205 139.755 20.6628C139.88 20.7962 140.036 20.8985 140.222 20.9697C140.409 21.0319 140.605 21.0631 140.809 21.0631ZM148.085 22.1973C147.988 22.1973 147.908 22.1661 147.845 22.1039C147.792 22.0416 147.765 21.966 147.765 21.877V16.6731H145.59C145.492 16.6731 145.412 16.642 145.35 16.5797C145.297 16.5174 145.27 16.4418 145.27 16.3529V15.579C145.27 15.49 145.297 15.4144 145.35 15.3521C145.412 15.2899 145.492 15.2587 145.59 15.2587H151.648C151.746 15.2587 151.826 15.2899 151.888 15.3521C151.951 15.4144 151.982 15.49 151.982 15.579V16.3529C151.982 16.4418 151.951 16.5174 151.888 16.5797C151.826 16.642 151.746 16.6731 151.648 16.6731H149.486V21.877C149.486 21.966 149.455 22.0416 149.393 22.1039C149.331 22.1661 149.255 22.1973 149.166 22.1973H148.085ZM153.36 22.1973C153.271 22.1973 153.195 22.1661 153.133 22.1039C153.071 22.0416 153.039 21.966 153.039 21.877V15.579C153.039 15.49 153.071 15.4144 153.133 15.3521C153.195 15.2899 153.271 15.2587 153.36 15.2587H154.481C154.569 15.2587 154.645 15.2899 154.707 15.3521C154.77 15.4144 154.801 15.49 154.801 15.579V17.4604H156.175C157.082 17.4604 157.763 17.6739 158.217 18.1009C158.67 18.5278 158.897 19.115 158.897 19.8622C158.897 20.6361 158.653 21.2188 158.163 21.6102C157.674 22.0016 156.976 22.1973 156.068 22.1973H153.36ZM154.774 20.9296H156.028C156.464 20.9296 156.784 20.8496 156.989 20.6895C157.203 20.5293 157.309 20.2536 157.309 19.8622C157.309 19.4797 157.207 19.195 157.002 19.0082C156.807 18.8214 156.482 18.728 156.028 18.728H154.774V20.9296ZM163.471 22.1973C163.391 22.1973 163.32 22.1661 163.258 22.1039C163.195 22.0416 163.164 21.9704 163.164 21.8904V15.579C163.164 15.49 163.195 15.4144 163.258 15.3521C163.32 15.2899 163.396 15.2587 163.484 15.2587H164.592C164.69 15.2587 164.765 15.2899 164.819 15.3521C164.881 15.4144 164.912 15.49 164.912 15.579V20.8496L164.445 20.516L168.115 15.4722C168.159 15.41 168.208 15.361 168.261 15.3254C168.315 15.281 168.386 15.2587 168.475 15.2587H169.489C169.569 15.2587 169.64 15.2899 169.702 15.3521C169.765 15.4055 169.796 15.4722 169.796 15.5523V21.877C169.796 21.966 169.765 22.0416 169.702 22.1039C169.64 22.1661 169.565 22.1973 169.476 22.1973H168.368C168.27 22.1973 168.19 22.1661 168.128 22.1039C168.075 22.0416 168.048 21.966 168.048 21.877V16.8466L168.542 16.9133L164.845 21.9838C164.81 22.0371 164.761 22.0861 164.699 22.1305C164.645 22.175 164.574 22.1973 164.485 22.1973H163.471ZM174.146 22.3307C173.577 22.3307 173.097 22.264 172.705 22.1305C172.323 21.9971 172.016 21.8281 171.785 21.6235C171.562 21.4189 171.398 21.2054 171.291 20.983C171.193 20.7517 171.135 20.5427 171.117 20.3559C171.117 20.2758 171.144 20.2136 171.198 20.1691C171.251 20.1246 171.309 20.1024 171.371 20.1024H172.465C172.554 20.1024 172.621 20.1202 172.665 20.1557C172.719 20.1913 172.763 20.2491 172.799 20.3292C172.888 20.5961 173.052 20.7829 173.292 20.8896C173.542 20.9964 173.848 21.0497 174.213 21.0497C174.462 21.0497 174.685 21.0186 174.88 20.9563C175.076 20.8852 175.227 20.7829 175.334 20.6494C175.441 20.5071 175.494 20.3336 175.494 20.129C175.494 19.8355 175.41 19.6131 175.241 19.4619C175.072 19.3018 174.796 19.2217 174.413 19.2217H173.679C173.59 19.2217 173.519 19.195 173.466 19.1416C173.413 19.0883 173.386 19.0171 173.386 18.9281V18.3677C173.386 18.2877 173.413 18.2209 173.466 18.1676C173.519 18.1053 173.59 18.0742 173.679 18.0742H174.36C174.68 18.0742 174.92 18.0164 175.08 17.9007C175.241 17.7762 175.321 17.5849 175.321 17.3269C175.321 17.1757 175.281 17.0334 175.201 16.9C175.129 16.7576 175.009 16.642 174.84 16.553C174.671 16.4641 174.436 16.4196 174.133 16.4196C173.715 16.4196 173.417 16.4863 173.239 16.6197C173.061 16.7532 172.932 16.9533 172.852 17.2202C172.817 17.3003 172.772 17.3581 172.719 17.3937C172.674 17.4292 172.603 17.447 172.505 17.447H171.451C171.38 17.447 171.318 17.4248 171.264 17.3803C171.22 17.3358 171.198 17.2736 171.198 17.1935C171.215 16.9533 171.278 16.7132 171.384 16.473C171.5 16.2239 171.673 15.9971 171.905 15.7925C172.145 15.5879 172.447 15.4277 172.812 15.3121C173.177 15.1876 173.622 15.1253 174.146 15.1253C174.858 15.1253 175.423 15.2231 175.841 15.4188C176.259 15.6146 176.557 15.8636 176.735 16.1661C176.922 16.4596 177.015 16.7665 177.015 17.0868C177.015 17.4159 176.953 17.7006 176.828 17.9407C176.713 18.1809 176.495 18.3766 176.175 18.5278C176.575 18.6791 176.851 18.9104 177.002 19.2217C177.153 19.533 177.233 19.8755 177.242 20.2491C177.242 20.6939 177.113 21.072 176.855 21.3833C176.597 21.6858 176.237 21.9215 175.774 22.0905C175.312 22.2506 174.769 22.3307 174.146 22.3307Z" fill="white"></path><path d="M108.263 47.6016C108.075 47.6016 107.915 47.5356 107.783 47.4036C107.651 47.2716 107.585 47.1114 107.585 46.9228V28.5124C107.585 28.305 107.651 28.1353 107.783 28.0033C107.915 27.8714 108.075 27.8054 108.263 27.8054H115.843C117.313 27.8054 118.595 28.041 119.689 28.5124C120.782 28.9649 121.631 29.6624 122.234 30.6051C122.837 31.5289 123.139 32.6884 123.139 34.0836C123.139 35.4976 122.837 36.6665 122.234 37.5903C121.631 38.4953 120.782 39.174 119.689 39.6265C118.595 40.079 117.313 40.3053 115.843 40.3053H111.629V46.9228C111.629 47.1114 111.563 47.2716 111.431 47.4036C111.318 47.5356 111.158 47.6016 110.95 47.6016H108.263ZM111.572 37.1661H115.701C116.795 37.1661 117.634 36.9116 118.218 36.4026C118.803 35.8747 119.095 35.1017 119.095 34.0836C119.095 33.1409 118.821 32.3868 118.275 31.8212C117.728 31.2367 116.87 30.9445 115.701 30.9445H111.572V37.1661ZM124.615 47.6016C124.426 47.6016 124.266 47.5356 124.134 47.4036C124.002 47.2716 123.936 47.1114 123.936 46.9228V28.2013C123.936 28.0128 124.002 27.8525 124.134 27.7205C124.266 27.5886 124.426 27.5226 124.615 27.5226H126.962C127.15 27.5226 127.311 27.5886 127.443 27.7205C127.575 27.8525 127.641 28.0128 127.641 28.2013V46.9228C127.641 47.1114 127.575 47.2716 127.443 47.4036C127.311 47.5356 127.15 47.6016 126.962 47.6016H124.615ZM133.683 47.8844C132.702 47.8844 131.816 47.6958 131.024 47.3188C130.232 46.9228 129.601 46.4044 129.129 45.7633C128.677 45.1035 128.451 44.3682 128.451 43.5575C128.451 42.2377 128.979 41.1914 130.034 40.4184C131.109 39.6265 132.523 39.0986 134.276 38.8347L138.151 38.2691V37.6752C138.151 36.8833 137.953 36.2706 137.557 35.837C137.161 35.4033 136.482 35.1865 135.521 35.1865C134.842 35.1865 134.286 35.3279 133.852 35.6107C133.437 35.8747 133.126 36.2329 132.919 36.6854C132.768 36.9305 132.551 37.053 132.269 37.053H130.034C129.827 37.053 129.667 36.9965 129.554 36.8833C129.459 36.7702 129.412 36.6194 129.412 36.4309C129.431 36.1292 129.554 35.7616 129.78 35.3279C130.006 34.8943 130.364 34.4795 130.855 34.0836C131.345 33.6688 131.976 33.32 132.749 33.0372C133.522 32.7544 134.456 32.613 135.549 32.613C136.737 32.613 137.736 32.7638 138.547 33.0655C139.376 33.3483 140.036 33.7348 140.526 34.225C141.017 34.7152 141.375 35.2902 141.601 35.9501C141.827 36.61 141.94 37.3075 141.94 38.0428V46.9228C141.94 47.1114 141.874 47.2716 141.742 47.4036C141.61 47.5356 141.45 47.6016 141.262 47.6016H138.971C138.764 47.6016 138.594 47.5356 138.462 47.4036C138.349 47.2716 138.292 47.1114 138.292 46.9228V45.8199C138.047 46.1781 137.717 46.5175 137.302 46.838C136.888 47.1397 136.379 47.3942 135.775 47.6016C135.191 47.7901 134.493 47.8844 133.683 47.8844ZM134.644 45.1977C135.304 45.1977 135.898 45.0563 136.426 44.7735C136.973 44.4907 137.397 44.0571 137.698 43.4726C138.019 42.8693 138.179 42.1152 138.179 41.2102V40.6163L135.351 41.0688C134.239 41.2385 133.409 41.5119 132.862 41.8889C132.316 42.266 132.042 42.7279 132.042 43.2747C132.042 43.6895 132.165 44.0477 132.41 44.3493C132.674 44.6321 133.004 44.8489 133.4 44.9998C133.796 45.1318 134.21 45.1977 134.644 45.1977ZM145.861 52.9748C145.71 52.9748 145.578 52.9183 145.465 52.8051C145.352 52.692 145.295 52.56 145.295 52.4092C145.295 52.3338 145.295 52.2584 145.295 52.183C145.314 52.1264 145.352 52.051 145.408 51.9567L147.614 46.7249L142.184 33.9139C142.109 33.7254 142.071 33.5934 142.071 33.518C142.09 33.3483 142.156 33.2069 142.269 33.0938C142.382 32.9618 142.523 32.8958 142.693 32.8958H144.984C145.21 32.8958 145.38 32.9524 145.493 33.0655C145.606 33.1786 145.691 33.3012 145.747 33.4331L149.509 42.6808L153.383 33.4331C153.44 33.2823 153.525 33.1598 153.638 33.0655C153.751 32.9524 153.92 32.8958 154.147 32.8958H156.409C156.56 32.8958 156.692 32.9524 156.805 33.0655C156.937 33.1786 157.003 33.3106 157.003 33.4614C157.003 33.5745 156.965 33.7254 156.89 33.9139L148.887 52.4375C148.811 52.5883 148.717 52.7109 148.604 52.8051C148.491 52.9183 148.321 52.9748 148.095 52.9748H145.861ZM168.41 47.8844C166.657 47.8844 165.186 47.6298 163.999 47.1208C162.83 46.5929 161.934 45.9142 161.312 45.0846C160.709 44.2362 160.388 43.3501 160.35 42.4263C160.35 42.2566 160.407 42.1152 160.52 42.0021C160.633 41.8889 160.775 41.8324 160.944 41.8324H163.461C163.706 41.8324 163.885 41.8889 163.999 42.0021C164.131 42.0963 164.244 42.2189 164.338 42.3697C164.451 42.7279 164.668 43.0861 164.988 43.4444C165.309 43.7837 165.743 44.0665 166.289 44.2928C166.855 44.519 167.562 44.6321 168.41 44.6321C169.768 44.6321 170.776 44.4059 171.436 43.9534C172.115 43.5009 172.454 42.8882 172.454 42.1152C172.454 41.5684 172.275 41.1348 171.917 40.8143C171.559 40.4749 171.003 40.1733 170.249 39.9093C169.513 39.6265 168.533 39.3343 167.307 39.0326C165.893 38.6933 164.706 38.2879 163.744 37.8166C162.801 37.3264 162.085 36.7137 161.595 35.9784C161.123 35.2431 160.888 34.3098 160.888 33.1786C160.888 32.0851 161.18 31.1142 161.764 30.2658C162.368 29.4173 163.216 28.748 164.31 28.2579C165.422 27.7677 166.742 27.5226 168.269 27.5226C169.494 27.5226 170.578 27.6923 171.521 28.0316C172.464 28.3521 173.246 28.7858 173.868 29.3325C174.491 29.8604 174.962 30.4354 175.282 31.0576C175.622 31.6609 175.801 32.2548 175.82 32.8393C175.82 32.9901 175.763 33.1315 175.65 33.2635C175.556 33.3766 175.414 33.4331 175.226 33.4331H172.596C172.445 33.4331 172.294 33.3954 172.143 33.32C171.992 33.2446 171.87 33.1032 171.776 32.8958C171.663 32.3114 171.295 31.8117 170.673 31.397C170.051 30.9822 169.249 30.7748 168.269 30.7748C167.251 30.7748 166.431 30.9633 165.809 31.3404C165.186 31.7175 164.875 32.3019 164.875 33.0938C164.875 33.6217 165.026 34.0647 165.328 34.423C165.648 34.7623 166.148 35.064 166.827 35.3279C167.524 35.5919 168.439 35.8747 169.57 36.1763C171.172 36.5346 172.483 36.9493 173.501 37.4207C174.519 37.892 175.264 38.4953 175.735 39.2306C176.206 39.947 176.442 40.8614 176.442 41.9738C176.442 43.2181 176.103 44.2833 175.424 45.1695C174.764 46.0367 173.831 46.706 172.624 47.1774C171.417 47.6487 170.013 47.8844 168.41 47.8844ZM184.01 47.6016C182.879 47.6016 181.926 47.4036 181.153 47.0077C180.38 46.6118 179.805 46.0273 179.428 45.2543C179.051 44.4625 178.863 43.4821 178.863 42.3132V35.8935H176.629C176.44 35.8935 176.28 35.8275 176.148 35.6956C176.016 35.5636 175.95 35.4033 175.95 35.2148V33.5745C175.95 33.386 176.016 33.2258 176.148 33.0938C176.28 32.9618 176.44 32.8958 176.629 32.8958H178.863V28.2013C178.863 28.0128 178.919 27.8525 179.032 27.7205C179.164 27.5886 179.334 27.5226 179.541 27.5226H181.832C182.021 27.5226 182.181 27.5886 182.313 27.7205C182.445 27.8525 182.511 28.0128 182.511 28.2013V32.8958H186.046C186.234 32.8958 186.395 32.9618 186.527 33.0938C186.659 33.2258 186.725 33.386 186.725 33.5745V35.2148C186.725 35.4033 186.659 35.5636 186.527 35.6956C186.395 35.8275 186.234 35.8935 186.046 35.8935H182.511V42.0303C182.511 42.8033 182.643 43.4067 182.907 43.8403C183.19 44.2739 183.67 44.4907 184.349 44.4907H186.3C186.489 44.4907 186.649 44.5567 186.781 44.6887C186.913 44.8207 186.979 44.9809 186.979 45.1695V46.9228C186.979 47.1114 186.913 47.2716 186.781 47.4036C186.649 47.5356 186.489 47.6016 186.3 47.6016H184.01ZM194.013 47.8844C192.505 47.8844 191.232 47.6204 190.195 47.0925C189.177 46.5646 188.394 45.8199 187.848 44.8584C187.32 43.8968 187.018 42.7751 186.943 41.493C186.924 41.1537 186.914 40.7389 186.914 40.2487C186.914 39.7585 186.924 39.3437 186.943 39.0044C187.018 37.7035 187.329 36.5817 187.876 35.639C188.442 34.6775 189.233 33.9328 190.252 33.4049C191.288 32.877 192.542 32.613 194.013 32.613C195.483 32.613 196.728 32.877 197.746 33.4049C198.783 33.9328 199.575 34.6775 200.121 35.639C200.687 36.5817 201.007 37.7035 201.083 39.0044C201.102 39.3437 201.111 39.7585 201.111 40.2487C201.111 40.7389 201.102 41.1537 201.083 41.493C201.007 42.7751 200.696 43.8968 200.15 44.8584C199.622 45.8199 198.839 46.5646 197.802 47.0925C196.784 47.6204 195.521 47.8844 194.013 47.8844ZM194.013 45.0846C195.012 45.0846 195.785 44.7735 196.332 44.1514C196.879 43.5104 197.18 42.5771 197.237 41.3516C197.256 41.0688 197.265 40.7012 197.265 40.2487C197.265 39.7962 197.256 39.4286 197.237 39.1458C197.18 37.9391 196.879 37.0153 196.332 36.3743C195.785 35.7333 195.012 35.4128 194.013 35.4128C193.014 35.4128 192.241 35.7333 191.694 36.3743C191.147 37.0153 190.845 37.9391 190.789 39.1458C190.77 39.4286 190.761 39.7962 190.761 40.2487C190.761 40.7012 190.77 41.0688 190.789 41.3516C190.845 42.5771 191.147 43.5104 191.694 44.1514C192.241 44.7735 193.014 45.0846 194.013 45.0846ZM202.944 47.6016C202.755 47.6016 202.595 47.5356 202.463 47.4036C202.331 47.2716 202.265 47.1114 202.265 46.9228V33.6028C202.265 33.3954 202.331 33.2258 202.463 33.0938C202.595 32.9618 202.755 32.8958 202.944 32.8958H205.234C205.423 32.8958 205.583 32.9618 205.715 33.0938C205.866 33.2258 205.941 33.3954 205.941 33.6028V34.7623C206.375 34.159 206.931 33.6971 207.61 33.3766C208.307 33.0561 209.109 32.8958 210.014 32.8958H211.173C211.381 32.8958 211.541 32.9618 211.654 33.0938C211.786 33.2258 211.852 33.386 211.852 33.5745V35.6107C211.852 35.7993 211.786 35.9595 211.654 36.0915C211.541 36.2235 211.381 36.2895 211.173 36.2895H208.967C208.062 36.2895 207.355 36.544 206.846 37.053C206.356 37.5621 206.111 38.2596 206.111 39.1458V46.9228C206.111 47.1114 206.045 47.2716 205.913 47.4036C205.781 47.5356 205.611 47.6016 205.404 47.6016H202.944ZM218.219 47.8844C216.127 47.8844 214.468 47.2811 213.242 46.0744C212.017 44.8678 211.357 43.1521 211.262 40.9274C211.244 40.7389 211.234 40.5032 211.234 40.2204C211.234 39.9188 211.244 39.6831 211.262 39.5134C211.338 38.0994 211.658 36.8739 212.224 35.837C212.808 34.8 213.61 34.0082 214.628 33.4614C215.646 32.8958 216.843 32.613 218.219 32.613C219.747 32.613 221.029 32.9335 222.065 33.5745C223.102 34.1967 223.885 35.0734 224.413 36.2046C224.941 37.317 225.205 38.6084 225.205 40.079V40.6729C225.205 40.8614 225.139 41.0217 225.007 41.1537C224.875 41.2856 224.705 41.3516 224.498 41.3516H215.109C215.109 41.3516 215.109 41.3799 215.109 41.4365C215.109 41.493 215.109 41.5402 215.109 41.5779C215.127 42.2377 215.25 42.8505 215.476 43.4161C215.721 43.9628 216.07 44.4059 216.523 44.7453C216.994 45.0846 217.55 45.2543 218.191 45.2543C218.719 45.2543 219.162 45.1789 219.52 45.0281C219.878 44.8584 220.171 44.6698 220.397 44.4625C220.623 44.2551 220.783 44.0854 220.878 43.9534C221.047 43.7272 221.179 43.5952 221.274 43.5575C221.387 43.5009 221.547 43.4726 221.754 43.4726H224.187C224.375 43.4726 224.526 43.5292 224.639 43.6423C224.771 43.7554 224.828 43.8968 224.809 44.0665C224.79 44.3682 224.63 44.7358 224.328 45.1695C224.045 45.6031 223.63 46.0273 223.084 46.4421C222.537 46.8568 221.849 47.2056 221.019 47.4884C220.208 47.7524 219.275 47.8844 218.219 47.8844ZM215.109 38.9761H221.358V38.8912C221.358 38.156 221.236 37.5149 220.991 36.9682C220.746 36.4214 220.388 35.9878 219.916 35.6673C219.445 35.3468 218.879 35.1865 218.219 35.1865C217.56 35.1865 216.994 35.3468 216.523 35.6673C216.051 35.9878 215.693 36.4214 215.448 36.9682C215.222 37.5149 215.109 38.156 215.109 38.8912V38.9761Z" fill="white"></path></svg> 